<?xml version="1.0" encoding="UTF-8" standalone="no"?><svg version="1.1" width="616.80365" height="566.70001" viewBox="0 0 616.80364 566.70001" xmlns:xlink="http://www.w3.org/1999/xlink" xmlns="http://www.w3.org/2000/svg" xmlns:svg="http://www.w3.org/2000/svg"><defs/><g id="bottom" style="display:inline" transform="translate(29.40145,-4.6499958)"><path style="display:inline;overflow:visible;fill:#ffffff;stroke-width:7.77377;stroke-linecap:round;stroke-linejoin:round;stop-color:#000000" d="M 330.17861,288.82693 A 142.81282,142.81282 0 0 1 187.36579,431.63975 142.81282,142.81282 0 0 1 44.552971,288.82693 142.81282,142.81282 0 0 1 187.36579,146.01411 142.81282,142.81282 0 0 1 330.17861,288.82693 Z"/><a id="prev" xlink:href="0.svg"><circle style="color:#000000;font-size:124.942px;line-height:125%;letter-spacing:0px;word-spacing:0px;display:inline;overflow:visible;fill:#ffffff;fill-opacity:1;stroke:none;stroke-width:0.977272px;-inkscape-stroke:none;stop-color:#000000" cx="0.00025799999" cy="288" r="29.401709"/><path d="m 15.525326,301.34721 q 1.285567,0.75622 1.285567,2.04178 0,0.98308 -0.756217,1.66368 -0.680593,0.60497 -1.814917,0.60497 -0.831837,0 -1.512431,-0.30248 l -30.551111,-13.83875 q -1.0587,-0.45373 -1.663674,-1.3612 -0.604972,-0.98307 -0.604972,-2.19302 0,-1.13432 0.604972,-2.04178 0.604974,-0.90747 1.663674,-1.36118 l 30.551111,-13.83875 q 0.907459,-0.37811 1.512431,-0.37811 1.134324,0 1.814917,0.6806 0.756217,0.60497 0.756217,1.66367 0,1.28557 -1.285567,1.96616 l -29.794894,13.38502 z" style="font-size:124.942px;line-height:125%;font-family:Nunito;-inkscape-font-specification:Nunito;letter-spacing:0px;word-spacing:0px;display:inline;vector-effect:none;fill:#00829a;fill-opacity:1;stroke:none;stroke-width:0.807008px;stop-color:#000000"/></a><a xlink:href="0.svg"><circle style="color:#000000;overflow:visible;fill:#ffffff;fill-opacity:1;stroke:none;stroke-width:0.977273px;-inkscape-stroke:none;stop-color:#000000" cx="0.00025808741" cy="34.051704" r="29.401709"/><g aria-label="0" style="font-size:32px;line-height:125%;font-family:Nunito;-inkscape-font-specification:Nunito;text-align:center;letter-spacing:0px;word-spacing:0px;text-anchor:middle;fill:#00829a;stroke:#000000;stroke-width:1px"><path d="m 2.5805737e-4,45.587718 q -3.87199995737,0 -5.88799995737,-2.944 -2.016,-2.944 -2.016,-8.576 0,-5.664 2.016,-8.608 2.016,-2.944 5.88799995737,-2.944 3.87200004263,0 5.88800004263,2.944 2.016,2.912 2.016,8.576 0,5.664 -2.016,8.608 -2.016,2.944 -5.88800004263,2.944 z m 0,-2.208 q 2.68800004263,0 3.96800004263,-2.272 1.28,-2.272 1.28,-7.072 0,-4.832 -1.28,-7.072 -1.248,-2.24 -3.96800004263,-2.24 -2.68799995737,0 -3.96799995737,2.272 -1.28,2.24 -1.28,7.04 0,4.8 1.28,7.072 1.28,2.272 3.96799995737,2.272 z" style="stroke:none"/></g></a><a xlink:href="1.svg"><circle style="color:#000000;overflow:visible;fill:#ffffff;fill-opacity:1;stroke:none;stroke-width:0.977273px;-inkscape-stroke:none;stop-color:#000000" cx="0.00025808741" cy="92.855125" r="29.401709"/><g aria-label="1" style="font-size:32px;line-height:125%;font-family:Nunito;-inkscape-font-specification:Nunito;text-align:center;letter-spacing:0px;word-spacing:0px;text-anchor:middle;fill:#00829a;stroke:#000000;stroke-width:1px"><path d="m 6.1442581,101.92715 q 0.576,0 0.896,0.288 0.32,0.288 0.32,0.8 0,0.544 -0.32,0.832 -0.288,0.288 -0.896,0.288 h -10.592 q -0.608,0 -0.928,-0.288 -0.288,-0.288 -0.288,-0.832 0,-0.512 0.32,-0.8 0.32,-0.288 0.896,-0.288 h 3.96799996 V 84.775147 l -3.48799996,2.272 q -0.256,0.16 -0.512,0.16 -0.448,0 -0.8,-0.416 -0.32,-0.416 -0.32,-0.896 0,-0.672 0.512,-0.96 l 4.86399996,-3.168 q 0.544,-0.352 1.12,-0.352 0.54400004,0 0.89600004,0.352 0.352,0.352 0.352,0.992 v 19.168003 z" style="stroke:none"/></g></a><a xlink:href="2.svg"><circle style="color:#000000;overflow:visible;fill:#ffffff;fill-opacity:1;stroke:none;stroke-width:0.977273px;-inkscape-stroke:none;stop-color:#000000" cx="0.00025808741" cy="151.65854" r="29.401709"/><g aria-label="2" style="font-size:32px;line-height:125%;font-family:Nunito;-inkscape-font-specification:Nunito;text-align:center;letter-spacing:0px;word-spacing:0px;text-anchor:middle;fill:#00829a;stroke:#000000;stroke-width:1px"><path d="m 6.6562581,160.73057 q 0.576,0 0.896,0.288 0.32,0.288 0.32,0.8 0,1.12 -1.216,1.12 h -12.544 q -0.544,0 -0.896,-0.32 -0.352,-0.352 -0.352,-0.832 0,-0.608 0.448,-1.056 l 7.712,-8.48 q 1.6,-1.792 2.304,-3.2 0.736,-1.44 0.736,-2.88 0,-1.856 -1.088,-2.848 -1.056,-0.992 -3.00800004,-0.992 -1.53599996,0 -2.94399996,0.576 -1.408,0.544 -2.816,1.696 -0.48,0.384 -0.896,0.384 -0.352,0 -0.608,-0.32 -0.256,-0.352 -0.256,-0.832 0,-0.672 0.512,-1.088 1.312,-1.216 3.2,-1.92 1.888,-0.704 3.87199996,-0.704 3.04000004,0 4.83200004,1.6 1.824,1.6 1.824,4.32 0,1.952 -0.896,3.744 -0.864,1.792 -2.88,4 l -6.4,6.944 z" style="stroke:none"/></g></a><a xlink:href="3.svg"><circle style="color:#000000;display:inline;overflow:visible;fill:#ffffff;fill-opacity:1;stroke:none;stroke-width:0.977273px;-inkscape-stroke:none;stop-color:#000000" cx="0.00025848058" cy="210.46196" r="29.401709"/><g aria-label="3" style="font-size:32px;line-height:125%;font-family:Nunito;-inkscape-font-specification:Nunito;text-align:center;letter-spacing:0px;word-spacing:0px;text-anchor:middle;display:inline;fill:#00829a;stroke:#000000;stroke-width:1px"><path d="m 3.0082581,210.15797 q 2.048,0.576 3.104,1.984 1.088,1.408 1.088,3.488 0,2.944 -1.984,4.64 -1.984,1.696 -5.40800001,1.696 -2.07999999,0 -3.99999999,-0.704 -1.888,-0.704 -3.2,-1.92 -0.512,-0.48 -0.512,-1.088 0,-0.48 0.256,-0.8 0.256,-0.32 0.608,-0.32 0.448,0 0.896,0.352 1.472,1.184 2.88,1.728 1.408,0.544 3.03999999,0.544 2.36800001,0 3.58400001,-1.088 1.248,-1.088 1.248,-3.136 0,-4.128 -5.18400001,-4.128 H -2.2717419 q -0.512,0 -0.832,-0.32 -0.288,-0.352 -0.288,-0.8 0,-0.448 0.288,-0.768 0.32,-0.32 0.832,-0.32 h 1.184 q 2.496,0 3.84,-1.088 1.344,-1.12 1.344,-3.2 0,-1.824 -1.088,-2.784 -1.088,-0.992 -3.07200001,-0.992 -1.50399999,0 -2.91199999,0.576 -1.408,0.544 -2.816,1.696 -0.448,0.352 -0.896,0.352 -0.352,0 -0.608,-0.32 -0.256,-0.32 -0.256,-0.8 0,-0.608 0.512,-1.088 1.312,-1.216 3.168,-1.92 1.888,-0.704 3.87199998744,-0.704 3.07200001256,0 4.89600001256,1.568 1.824,1.568 1.792,4.224 -0.032,1.92 -1.024,3.36 -0.96,1.44 -2.656,2.08 z" style="stroke:none"/></g></a><a xlink:href="4.svg"><circle style="color:#000000;overflow:visible;fill:#ffffff;fill-opacity:1;stroke:none;stroke-width:0.977273px;-inkscape-stroke:none;stop-color:#000000" cx="0.00025808741" cy="365.53802" r="29.401709"/><g aria-label="4" style="font-size:32px;line-height:125%;font-family:Nunito;-inkscape-font-specification:Nunito;text-align:center;letter-spacing:0px;word-spacing:0px;text-anchor:middle;fill:#00829a;stroke:#000000;stroke-width:1px"><path d="m 7.4562581,369.74605 q 0.576,0 0.896,0.32 0.32,0.288 0.32,0.768 0,1.088 -1.216,1.088 h -2.4 v 3.712 q 0,0.64 -0.384,0.992 -0.352,0.352 -0.928,0.352 -0.576,0 -0.928,-0.352 -0.352,-0.352 -0.352,-0.992 v -3.712 h -9.472 q -0.576,0 -0.896,-0.32 -0.32,-0.32 -0.32,-0.8 0,-0.448 0.352,-0.992 l 10.464,-15.136 q 0.448,-0.576 1.152,-0.576 0.544,0 0.928,0.352 0.384,0.352 0.384,0.992 v 14.304 z m -12.704,0 h 7.712 v -11.104 z" style="stroke:none"/></g></a><a xlink:href="5.svg"><circle style="color:#000000;overflow:visible;fill:#ffffff;fill-opacity:1;stroke:none;stroke-width:0.977273px;-inkscape-stroke:none;stop-color:#000000" cx="0.00025808741" cy="424.34146" r="29.401709"/><g aria-label="5" style="font-size:32px;line-height:125%;font-family:Nunito;-inkscape-font-specification:Nunito;text-align:center;letter-spacing:0px;word-spacing:0px;text-anchor:middle;fill:#00829a;stroke:#000000;stroke-width:1px"><path d="m 0.86425806,421.47749 q 2.14400004,0 3.74400004,0.896 1.632,0.896 2.496,2.528 0.896,1.6 0.896,3.712 0,2.112 -0.96,3.776 -0.96,1.632 -2.688,2.56 -1.696,0.896 -3.93600004,0.896 -1.98399996,0 -3.87199996,-0.704 -1.888,-0.704 -3.2,-1.92 -0.512,-0.48 -0.512,-1.088 0,-0.48 0.256,-0.8 0.256,-0.32 0.608,-0.32 0.448,0 0.896,0.352 1.408,1.152 2.816,1.728 1.408,0.544 2.94399996,0.544 2.36800004,0 3.71200004,-1.344 1.344,-1.344 1.344,-3.648 0,-2.24 -1.344,-3.616 -1.344,-1.376 -3.61600004,-1.376 -2.91199996,0 -4.73599996,2.24 -0.448,0.48 -1.088,0.48 -0.448,0 -0.768,-0.256 -0.288,-0.288 -0.288,-0.768 v -11.04 q 0,-0.544 0.32,-0.896 0.352,-0.352 0.96,-0.352 h 11.264 q 0.576,0 0.896,0.288 0.352,0.288 0.352,0.8 0,0.512 -0.352,0.8 -0.32,0.288 -0.896,0.288 h -9.952 v 8.032 q 0.896,-0.864 2.08,-1.312 1.21599996,-0.48 2.62399996,-0.48 z" style="stroke:none"/></g></a><a xlink:href="6.svg"><circle style="color:#000000;overflow:visible;fill:#ffffff;fill-opacity:1;stroke:none;stroke-width:0.977273px;-inkscape-stroke:none;stop-color:#000000" cx="0.00025808741" cy="483.14487" r="29.401709"/><g aria-label="6" style="font-size:32px;line-height:125%;font-family:Nunito;-inkscape-font-specification:Nunito;text-align:center;letter-spacing:0px;word-spacing:0px;text-anchor:middle;fill:#00829a;stroke:#000000;stroke-width:1px"><path d="m 0.94424927,480.2489 q 2.04800003,0 3.64800003,0.896 1.6,0.896 2.496,2.528 0.896,1.632 0.896,3.744 0,2.08 -0.928,3.744 -0.928,1.664 -2.592,2.592 -1.664,0.928 -3.74400003,0.928 -4.09599997,0 -6.33599997,-2.848 -2.208,-2.848 -2.208,-8.128 0,-3.776 1.024,-6.496 1.024,-2.72 2.976,-4.16 1.952,-1.44 4.63999997,-1.44 1.82400003,0 3.61600003,0.704 1.824,0.704 3.104,1.92 0.544,0.512 0.544,1.088 0,0.48 -0.256,0.8 -0.256,0.32 -0.608,0.32 -0.448,0 -0.928,-0.352 -2.784,-2.272 -5.40800003,-2.272 -2.84799997,0 -4.44799997,2.592 -1.6,2.592 -1.6,7.264 v 0.416 q 0.736,-1.792 2.368,-2.816 1.664,-1.024 3.74399997,-1.024 z m -0.352,12.224 q 2.17600003,0 3.48800003,-1.376 1.312,-1.376 1.312,-3.648 0,-2.272 -1.344,-3.616 -1.312,-1.376 -3.48800003,-1.376 -2.20799997,0 -3.61599997,1.408 -1.376,1.376 -1.376,3.584 0,2.24 1.376,3.648 1.408,1.376 3.64799997,1.376 z" style="stroke:none"/></g></a><a xlink:href="7.svg"><circle style="color:#000000;display:inline;overflow:visible;fill:#ffffff;fill-opacity:1;stroke:none;stroke-width:0.977273px;-inkscape-stroke:none;stop-color:#000000" cx="0.00025848058" cy="541.9483" r="29.401709"/><g aria-label="7" style="font-size:32px;line-height:125%;font-family:Nunito;-inkscape-font-specification:Nunito;text-align:center;letter-spacing:0px;word-spacing:0px;text-anchor:middle;display:inline;fill:#00829a;stroke:#000000;stroke-width:1px"><path d="m 6.4962581,530.66833 q 0.576,0 0.864,0.32 0.32,0.288 0.32,0.768 0,0.448 -0.288,0.992 l -10.624,20 q -0.384,0.704 -1.12,0.704 -0.512,0 -0.928,-0.352 -0.384,-0.352 -0.384,-0.864 0,-0.352 0.224,-0.704 l 9.984,-18.656 h -11.04 q -0.576,0 -0.896,-0.288 -0.288,-0.288 -0.288,-0.8 0,-0.544 0.288,-0.832 0.32,-0.288 0.896,-0.288 z" style="stroke:none"/></g></a><g transform="translate(-2.10028,0.65171)" style="display:inline"><path d="m 64.629259,524.90493 q -5.162707,0 -7.850728,-3.92536 -2.688021,-3.92536 -2.688021,-11.43476 0,-7.55205 2.688021,-11.47742 2.688021,-3.92536 7.850728,-3.92536 5.162707,0 7.850728,3.92536 2.688021,3.8827 2.688021,11.43476 0,7.55206 -2.688021,11.47742 -2.688021,3.92536 -7.850728,3.92536 z m 0,-2.94402 q 3.584028,0 5.290708,-3.02936 1.70668,-3.02935 1.70668,-9.4294 0,-6.44272 -1.70668,-9.42941 -1.664013,-2.98669 -5.290708,-2.98669 -3.584028,0 -5.290708,3.02936 -1.70668,2.98669 -1.70668,9.38674 0,6.40005 1.70668,9.4294 1.70668,3.02936 5.290708,3.02936 z" style="font-size:16.0002px;line-height:0%;font-family:Nunito;-inkscape-font-specification:Nunito;letter-spacing:0px;word-spacing:0px;display:inline;fill:#cccccc;stroke-width:1.33334px"/><path d="m 91.082815,503.27277 q 2.730688,0 4.821371,1.32267 2.090683,1.32268 3.242692,3.7547 1.152012,2.43202 1.152012,5.63204 0,3.24269 -1.152012,5.71738 -1.152009,2.43202 -3.242692,3.79736 -2.090683,1.36535 -4.821371,1.36535 -2.432019,0 -4.2667,-1.06668 -1.792014,-1.06667 -2.730688,-3.02935 v 2.30401 q 0,0.76801 -0.469337,1.23735 -0.42667,0.46933 -1.237343,0.46933 -0.810673,0 -1.28001,-0.46933 -0.469337,-0.46934 -0.469337,-1.23735 v -27.13621 q 0,-0.72534 0.469337,-1.19467 0.469337,-0.46934 1.28001,-0.46934 0.810673,0 1.237343,0.46934 0.469337,0.42667 0.469337,1.19467 v 11.43476 q 0.938674,-1.96268 2.730688,-3.02936 1.834681,-1.06667 4.2667,-1.06667 z m -0.682672,18.73081 q 3.029357,0 4.69337,-2.09068 1.664013,-2.13335 1.664013,-5.93072 0,-3.71203 -1.664013,-5.76004 -1.664013,-2.04802 -4.69337,-2.04802 -3.029357,0 -4.69337,2.04802 -1.621346,2.04801 -1.621346,5.84538 0,3.79736 1.621346,5.88804 1.664013,2.04802 4.69337,2.04802 z" style="font-size:16.0002px;line-height:0%;font-family:Nunito;-inkscape-font-specification:Nunito;letter-spacing:0px;word-spacing:0px;display:inline;fill:#cccccc;stroke-width:1.33334px"/></g><g aria-label="binary" style="font-size:10.8459px;line-height:0%;font-family:Nunito;-inkscape-font-specification:Nunito;letter-spacing:0px;word-spacing:0px;display:inline;stroke-width:0.903824px" transform="translate(-2.100318)"><path d="m 61.176535,470.10807 q 1.851034,0 3.268232,0.89659 1.417197,0.8966 2.198102,2.54517 0.780905,1.64858 0.780905,3.81776 0,2.1981 -0.780905,3.8756 -0.780905,1.64858 -2.198102,2.57409 -1.417198,0.92552 -3.268232,0.92552 -1.648576,0 -2.892239,-0.72306 -1.214741,-0.72306 -1.851034,-2.05349 v 1.56181 q 0,0.5206 -0.318146,0.83875 -0.289224,0.31815 -0.83875,0.31815 -0.549526,0 -0.867672,-0.31815 -0.318146,-0.31815 -0.318146,-0.83875 v -18.39465 q 0,-0.49168 0.318146,-0.80982 0.318146,-0.31815 0.867672,-0.31815 0.549526,0 0.83875,0.31815 0.318146,0.28922 0.318146,0.80982 v 7.75121 q 0.636293,-1.33043 1.851034,-2.05349 1.243663,-0.72306 2.892239,-0.72306 z M 60.713777,482.805 q 2.05349,0 3.181464,-1.4172 1.127974,-1.44612 1.127974,-4.02021 0,-2.51625 -1.127974,-3.90452 -1.127974,-1.38828 -3.181464,-1.38828 -2.05349,0 -3.181464,1.38828 -1.099051,1.38827 -1.099051,3.96236 0,2.5741 1.099051,3.9913 1.127974,1.38827 3.181464,1.38827 z" style="font-size:28.9224px;line-height:1.25;fill:#cccccc"/><path d="m 72.109223,484.68496 q -0.520603,0 -0.867672,-0.28923 -0.318146,-0.31814 -0.318146,-0.86767 v -12.20525 q 0,-0.54953 0.318146,-0.83875 0.347069,-0.31815 0.867672,-0.31815 0.520603,0 0.83875,0.31815 0.318146,0.28922 0.318146,0.83875 v 12.20525 q 0,0.57845 -0.318146,0.86767 -0.318147,0.28923 -0.83875,0.28923 z m 0,-17.5559 q -0.694137,0 -1.127973,-0.40491 -0.433836,-0.40492 -0.433836,-1.07013 0,-0.6363 0.433836,-1.04121 0.433836,-0.40491 1.127973,-0.40491 0.694138,0 1.127974,0.40491 0.433836,0.40491 0.433836,1.04121 0,0.66521 -0.433836,1.07013 -0.433836,0.40491 -1.127974,0.40491 z" style="font-size:28.9224px;line-height:1.25;fill:#cccccc"/><path d="m 84.719399,470.10807 q 5.06142,0 5.06142,5.58202 v 7.83797 q 0,0.54953 -0.318146,0.86767 -0.289224,0.28923 -0.83875,0.28923 -0.549525,0 -0.867672,-0.28923 -0.318146,-0.31814 -0.318146,-0.86767 v -7.69336 q 0,-1.96672 -0.780905,-2.86332 -0.751982,-0.89659 -2.429481,-0.89659 -1.937801,0 -3.094697,1.18582 -1.156896,1.18582 -1.156896,3.21038 v 7.05707 q 0,0.54953 -0.318147,0.86767 -0.289224,0.28923 -0.838749,0.28923 -0.549526,0 -0.867672,-0.28923 -0.318147,-0.31814 -0.318147,-0.86767 v -12.20525 q 0,-0.52061 0.318147,-0.83875 0.318146,-0.31815 0.867672,-0.31815 0.520603,0 0.809827,0.31815 0.318146,0.31814 0.318146,0.80983 v 1.47504 q 0.694138,-1.30151 1.937801,-1.96673 1.243663,-0.69413 2.834395,-0.69413 z" style="font-size:28.9224px;line-height:1.25;fill:#cccccc"/><path d="m 99.816915,470.10807 q 5.292795,0 5.292795,5.5531 v 7.86689 q 0,0.5206 -0.31814,0.83875 -0.28923,0.31815 -0.80983,0.31815 -0.5206,0 -0.83875,-0.31815 -0.31815,-0.31815 -0.31815,-0.83875 v -1.38827 q -0.54952,1.24366 -1.67749,1.9378 -1.12798,0.66521 -2.603021,0.66521 -1.359352,0 -2.516248,-0.54952 -1.127974,-0.54953 -1.793189,-1.53289 -0.665215,-0.98336 -0.665215,-2.16918 0,-1.59073 0.809827,-2.45841 0.809827,-0.89659 2.660861,-1.27258 1.851033,-0.40491 5.148185,-0.40491 h 0.63629 v -0.95444 q 0,-1.73535 -0.72306,-2.54518 -0.69413,-0.80982 -2.284865,-0.80982 -1.966723,0 -3.991291,1.07013 -0.780905,0.49168 -1.099051,0.49168 -0.347069,0 -0.578448,-0.2603 -0.231379,-0.26031 -0.231379,-0.66522 0,-0.40491 0.231379,-0.69414 0.260301,-0.31814 0.809827,-0.63629 1.012284,-0.57845 2.284869,-0.89659 1.301508,-0.34707 2.574094,-0.34707 z m -0.954439,12.7837 q 1.735344,0 2.834394,-1.1569 1.12797,-1.18582 1.12797,-3.03685 v -0.83875 h -0.5206 q -2.54517,0 -3.8756,0.23138 -1.330431,0.20246 -1.908878,0.72306 -0.549526,0.49168 -0.549526,1.47504 0,1.12798 0.809827,1.87996 0.83875,0.72306 2.082413,0.72306 z" style="font-size:28.9224px;line-height:1.25;fill:#cccccc"/><path d="m 116.36055,470.16591 q 1.21474,-0.0868 1.21474,0.98336 0,0.46276 -0.2603,0.75199 -0.2603,0.2603 -0.8966,0.31814 l -0.86767,0.0868 q -1.9378,0.17353 -2.89224,1.38827 -0.92552,1.18582 -0.92552,2.80548 v 7.02814 q 0,0.57845 -0.31814,0.86767 -0.31815,0.28923 -0.83875,0.28923 -0.52061,0 -0.86767,-0.28923 -0.31815,-0.31814 -0.31815,-0.86767 v -12.20525 q 0,-0.54953 0.34707,-0.83875 0.34707,-0.31815 0.83875,-0.31815 0.46276,0 0.7809,0.31815 0.31815,0.28922 0.31815,0.80983 v 1.61965 q 0.60737,-1.27259 1.70642,-1.9378 1.12797,-0.66522 2.57409,-0.78091 z" style="font-size:28.9224px;line-height:1.25;fill:#cccccc"/><path d="m 130.61933,470.88897 q 0.31815,-0.69414 1.01229,-0.69414 0.43383,0 0.7809,0.28923 0.34707,0.28922 0.34707,0.72306 0,0.2603 -0.11569,0.46276 l -8.12719,17.52697 q -0.14462,0.31815 -0.43384,0.49168 -0.2603,0.17354 -0.54953,0.17354 -0.43383,0 -0.7809,-0.28923 -0.31815,-0.2603 -0.31815,-0.69414 0,-0.23138 0.11569,-0.46275 l 2.02457,-4.36729 -5.72663,-12.37878 q -0.11569,-0.20246 -0.11569,-0.43384 0,-0.43384 0.37599,-0.75198 0.40491,-0.31815 0.86767,-0.31815 0.28922,0 0.54952,0.17354 0.28923,0.17353 0.43384,0.49168 l 4.83004,10.8459 z" style="font-size:28.9224px;line-height:1.25;fill:#cccccc"/></g><g aria-label="hexadecimal" style="font-size:10.8459px;line-height:0%;font-family:Nunito;-inkscape-font-specification:Nunito;letter-spacing:0px;word-spacing:0px;display:inline;stroke-width:0.903824px"><path d="m 356.62602,470.10807 q 2.48733,0 3.75991,1.41719 1.27259,1.38828 1.27259,4.16483 v 7.83797 q 0,0.54953 -0.31815,0.86767 -0.31814,0.28923 -0.83875,0.28923 -0.54952,0 -0.86767,-0.28923 -0.31815,-0.31814 -0.31815,-0.86767 v -7.78013 q 0,-1.87995 -0.7809,-2.77655 -0.75198,-0.89659 -2.42948,-0.89659 -1.9378,0 -3.0947,1.18582 -1.1569,1.18582 -1.1569,3.21038 v 7.05707 q 0,0.54953 -0.31814,0.86767 -0.28923,0.28923 -0.83875,0.28923 -0.54953,0 -0.86767,-0.28923 -0.31815,-0.31814 -0.31815,-0.86767 v -18.39465 q 0,-0.49168 0.31815,-0.80982 0.34707,-0.31815 0.86767,-0.31815 0.54952,0 0.83875,0.31815 0.31814,0.28922 0.31814,0.80982 v 7.57767 q 0.69414,-1.27258 1.93781,-1.9378 1.24366,-0.66521 2.83439,-0.66521 z" style="font-size:28.9224px;line-height:1.25;text-align:end;text-anchor:end;fill:#cccccc"/><path d="m 376.8428,481.27211 q 0.31815,0 0.54953,0.2603 0.23138,0.26031 0.23138,0.66522 0,0.72306 -1.01229,1.33043 -1.0412,0.60737 -2.1981,0.92552 -1.1569,0.28922 -2.25595,0.28922 -3.26823,0 -5.17711,-1.9378 -1.87995,-1.9378 -1.87995,-5.35064 0,-2.16918 0.83875,-3.81776 0.83875,-1.6775 2.34271,-2.60302 1.53289,-0.92551 3.47069,-0.92551 2.74763,0 4.36728,1.79319 1.61966,1.79318 1.61966,4.85896 0,0.57845 -0.23138,0.83875 -0.23138,0.2603 -0.75199,0.2603 h -9.31301 q 0.2603,4.97465 4.71435,4.97465 1.12798,0 1.9378,-0.28922 0.80983,-0.31815 1.73535,-0.83875 0.75198,-0.43384 1.01228,-0.43384 z m -5.06142,-9.34193 q -1.85103,0 -2.97901,1.15689 -1.09905,1.1569 -1.3015,3.26824 h 8.18504 q -0.0578,-2.14026 -1.07013,-3.26824 -1.01229,-1.15689 -2.8344,-1.15689 z" style="font-size:28.9224px;line-height:1.25;text-align:end;text-anchor:end;fill:#cccccc"/><path d="m 392.4609,482.74716 q 0.34707,0.34706 0.34707,0.83875 0,0.43383 -0.31814,0.75198 -0.31815,0.31814 -0.75199,0.31814 -0.46276,0 -0.83875,-0.40491 l -4.68543,-5.35064 -4.6565,5.35064 q -0.37599,0.40491 -0.83875,0.40491 -0.43384,0 -0.78091,-0.31814 -0.31814,-0.31815 -0.31814,-0.78091 0,-0.43383 0.34707,-0.80982 l 4.80111,-5.40849 -4.59866,-5.23496 q -0.34707,-0.40491 -0.34707,-0.80982 0,-0.46276 0.31815,-0.78091 0.34707,-0.31815 0.75198,-0.31815 0.46276,0 0.83875,0.40492 l 4.48297,5.14818 4.48298,-5.14818 q 0.37599,-0.40492 0.83875,-0.40492 0.43383,0 0.75198,0.31815 0.31815,0.31815 0.31815,0.75198 0,0.49168 -0.34707,0.83875 l -4.59867,5.23496 z" style="font-size:28.9224px;line-height:1.25;text-align:end;text-anchor:end;fill:#cccccc"/><path d="m 401.4847,470.10807 q 5.2928,0 5.2928,5.5531 v 7.86689 q 0,0.5206 -0.31814,0.83875 -0.28923,0.31815 -0.80983,0.31815 -0.5206,0 -0.83875,-0.31815 -0.31815,-0.31815 -0.31815,-0.83875 v -1.38827 q -0.54952,1.24366 -1.67749,1.9378 -1.12798,0.66521 -2.60302,0.66521 -1.35935,0 -2.51625,-0.54952 -1.12797,-0.54953 -1.79319,-1.53289 -0.66521,-0.98336 -0.66521,-2.16918 0,-1.59073 0.80982,-2.45841 0.80983,-0.89659 2.66086,-1.27258 1.85104,-0.40491 5.14819,-0.40491 h 0.63629 v -0.95444 q 0,-1.73535 -0.72306,-2.54518 -0.69413,-0.80982 -2.28487,-0.80982 -1.96672,0 -3.99129,1.07013 -0.7809,0.49168 -1.09905,0.49168 -0.34707,0 -0.57845,-0.2603 -0.23137,-0.26031 -0.23137,-0.66522 0,-0.40491 0.23137,-0.69414 0.26031,-0.31814 0.80983,-0.63629 1.01229,-0.57845 2.28487,-0.89659 1.30151,-0.34707 2.57409,-0.34707 z m -0.95443,12.7837 q 1.73534,0 2.83439,-1.1569 1.12797,-1.18582 1.12797,-3.03685 v -0.83875 h -0.5206 q -2.54517,0 -3.8756,0.23138 -1.33043,0.20246 -1.90888,0.72306 -0.54952,0.49168 -0.54952,1.47504 0,1.12798 0.80982,1.87996 0.83875,0.72306 2.08242,0.72306 z" style="font-size:28.9224px;line-height:1.25;text-align:end;text-anchor:end;fill:#cccccc"/><path d="m 422.3667,464.00544 q 0.54952,0 0.86767,0.31815 0.31815,0.31814 0.31815,0.80982 v 18.39465 q 0,0.5206 -0.31815,0.83875 -0.31815,0.31815 -0.86767,0.31815 -0.54953,0 -0.86767,-0.31815 -0.28923,-0.31815 -0.28923,-0.83875 v -1.56181 q -0.63629,1.33043 -1.87995,2.05349 -1.21475,0.72306 -2.86332,0.72306 -1.85104,0 -3.26823,-0.92552 -1.4172,-0.92551 -2.19811,-2.57409 -0.7809,-1.6775 -0.7809,-3.8756 0,-2.16918 0.7809,-3.81776 0.78091,-1.64857 2.19811,-2.54517 1.41719,-0.89659 3.26823,-0.89659 1.64857,0 2.86332,0.72306 1.24366,0.72306 1.87995,2.05349 v -7.75121 q 0,-0.5206 0.28923,-0.80982 0.31814,-0.31815 0.86767,-0.31815 z m -5.43741,18.79956 q 2.05349,0 3.15254,-1.38827 1.12797,-1.4172 1.12797,-3.9913 0,-2.57409 -1.12797,-3.96236 -1.09905,-1.38828 -3.15254,-1.38828 -2.05349,0 -3.21039,1.38828 -1.12797,1.38827 -1.12797,3.90452 0,2.57409 1.12797,4.02021 1.1569,1.4172 3.21039,1.4172 z" style="font-size:28.9224px;line-height:1.25;text-align:end;text-anchor:end;fill:#cccccc"/><path d="m 438.79464,481.27211 q 0.31815,0 0.54952,0.2603 0.23138,0.26031 0.23138,0.66522 0,0.72306 -1.01228,1.33043 -1.04121,0.60737 -2.1981,0.92552 -1.1569,0.28922 -2.25595,0.28922 -3.26823,0 -5.17711,-1.9378 -1.87996,-1.9378 -1.87996,-5.35064 0,-2.16918 0.83875,-3.81776 0.83875,-1.6775 2.34272,-2.60302 1.53289,-0.92551 3.47069,-0.92551 2.74762,0 4.36728,1.79319 1.61965,1.79318 1.61965,4.85896 0,0.57845 -0.23138,0.83875 -0.23138,0.2603 -0.75198,0.2603 h -9.31301 q 0.2603,4.97465 4.71435,4.97465 1.12797,0 1.9378,-0.28922 0.80983,-0.31815 1.73534,-0.83875 0.75199,-0.43384 1.01229,-0.43384 z m -5.06142,-9.34193 q -1.85103,0 -2.97901,1.15689 -1.09905,1.1569 -1.30151,3.26824 h 8.18504 q -0.0578,-2.14026 -1.07013,-3.26824 -1.01228,-1.15689 -2.83439,-1.15689 z" style="font-size:28.9224px;line-height:1.25;text-align:end;text-anchor:end;fill:#cccccc"/><path d="m 448.94642,484.7428 q -1.96673,0 -3.49961,-0.89659 -1.50397,-0.8966 -2.34272,-2.54517 -0.80983,-1.64858 -0.80983,-3.81776 0,-2.16918 0.83875,-3.84668 0.86768,-1.6775 2.40056,-2.60302 1.53289,-0.92551 3.52853,-0.92551 1.09906,0 2.16918,0.31814 1.09906,0.28923 1.90888,0.86768 0.52061,0.34706 0.72306,0.69413 0.23138,0.31815 0.23138,0.72306 0,0.40492 -0.23138,0.66522 -0.20245,0.2603 -0.54952,0.2603 -0.20246,0 -0.43384,-0.11569 -0.23138,-0.11569 -0.40491,-0.23138 -0.14461,-0.11569 -0.20246,-0.14461 -0.75198,-0.49168 -1.44612,-0.78091 -0.66521,-0.28922 -1.64858,-0.28922 -2.11133,0 -3.29715,1.44612 -1.15689,1.4172 -1.15689,3.96237 0,2.54517 1.15689,3.93345 1.18582,1.38827 3.29715,1.38827 0.98337,0 1.6775,-0.28922 0.72306,-0.28923 1.44612,-0.78091 0.31815,-0.20246 0.60737,-0.34707 0.28923,-0.14461 0.49168,-0.14461 0.31815,0 0.52061,0.2603 0.23138,0.2603 0.23138,0.66522 0,0.37599 -0.20246,0.69414 -0.20246,0.28922 -0.75198,0.66521 -0.80983,0.54953 -1.96673,0.89659 -1.12797,0.31815 -2.28486,0.31815 z" style="font-size:28.9224px;line-height:1.25;text-align:end;text-anchor:end;fill:#cccccc"/><path d="m 458.17267,484.68496 q -0.52061,0 -0.86767,-0.28923 -0.31815,-0.31814 -0.31815,-0.86767 v -12.20525 q 0,-0.54953 0.31815,-0.83875 0.34706,-0.31815 0.86767,-0.31815 0.5206,0 0.83875,0.31815 0.31814,0.28922 0.31814,0.83875 v 12.20525 q 0,0.57845 -0.31814,0.86767 -0.31815,0.28923 -0.83875,0.28923 z m 0,-17.5559 q -0.69414,0 -1.12798,-0.40491 -0.43383,-0.40492 -0.43383,-1.07013 0,-0.6363 0.43383,-1.04121 0.43384,-0.40491 1.12798,-0.40491 0.69414,0 1.12797,0.40491 0.43384,0.40491 0.43384,1.04121 0,0.66521 -0.43384,1.07013 -0.43383,0.40491 -1.12797,0.40491 z" style="font-size:28.9224px;line-height:1.25;text-align:end;text-anchor:end;fill:#cccccc"/><path d="m 479.3728,470.10807 q 4.68543,0 4.68543,5.58202 v 7.83797 q 0,0.54953 -0.31815,0.86767 -0.31815,0.28923 -0.83875,0.28923 -0.5206,0 -0.86767,-0.28923 -0.31815,-0.31814 -0.31815,-0.86767 v -7.78013 q 0,-1.9378 -0.69414,-2.80547 -0.69413,-0.86767 -2.16918,-0.86767 -1.76426,0 -2.77655,1.18582 -1.01228,1.18582 -1.01228,3.21038 v 7.05707 q 0,0.54953 -0.34707,0.86767 -0.31815,0.28923 -0.83875,0.28923 -0.5206,0 -0.83875,-0.28923 -0.31815,-0.31814 -0.31815,-0.86767 v -7.78013 q 0,-1.9378 -0.69413,-2.80547 -0.69414,-0.86767 -2.19811,-0.86767 -1.73534,0 -2.77655,1.18582 -1.01228,1.18582 -1.01228,3.21038 v 7.05707 q 0,0.54953 -0.31815,0.86767 -0.31814,0.28923 -0.83875,0.28923 -0.5206,0 -0.86767,-0.28923 -0.31814,-0.31814 -0.31814,-0.86767 v -12.20525 q 0,-0.52061 0.31814,-0.83875 0.34707,-0.31815 0.86767,-0.31815 0.49169,0 0.80983,0.31815 0.31815,0.28922 0.31815,0.80983 v 1.38827 q 0.63629,-1.24366 1.76426,-1.90888 1.12798,-0.66521 2.60302,-0.66521 3.29715,0 4.30944,2.77655 0.60737,-1.27259 1.85103,-2.02457 1.24366,-0.75198 2.8344,-0.75198 z" style="font-size:28.9224px;line-height:1.25;text-align:end;text-anchor:end;fill:#cccccc"/><path d="m 494.09427,470.10807 q 5.2928,0 5.2928,5.5531 v 7.86689 q 0,0.5206 -0.31814,0.83875 -0.28923,0.31815 -0.80983,0.31815 -0.5206,0 -0.83875,-0.31815 -0.31815,-0.31815 -0.31815,-0.83875 v -1.38827 q -0.54952,1.24366 -1.6775,1.9378 -1.12797,0.66521 -2.60301,0.66521 -1.35935,0 -2.51625,-0.54952 -1.12797,-0.54953 -1.79319,-1.53289 -0.66521,-0.98336 -0.66521,-2.16918 0,-1.59073 0.80982,-2.45841 0.80983,-0.89659 2.66086,-1.27258 1.85104,-0.40491 5.14819,-0.40491 h 0.63629 v -0.95444 q 0,-1.73535 -0.72306,-2.54518 -0.69413,-0.80982 -2.28487,-0.80982 -1.96672,0 -3.99129,1.07013 -0.7809,0.49168 -1.09905,0.49168 -0.34707,0 -0.57845,-0.2603 -0.23138,-0.26031 -0.23138,-0.66522 0,-0.40491 0.23138,-0.69414 0.26031,-0.31814 0.80983,-0.63629 1.01229,-0.57845 2.28487,-0.89659 1.30151,-0.34707 2.57409,-0.34707 z m -0.95443,12.7837 q 1.73534,0 2.83439,-1.1569 1.12797,-1.18582 1.12797,-3.03685 v -0.83875 h -0.5206 q -2.54517,0 -3.8756,0.23138 -1.33043,0.20246 -1.90888,0.72306 -0.54952,0.49168 -0.54952,1.47504 0,1.12798 0.80982,1.87996 0.83875,0.72306 2.08242,0.72306 z" style="font-size:28.9224px;line-height:1.25;text-align:end;text-anchor:end;fill:#cccccc"/><path d="m 504.85342,484.68496 q -0.5206,0 -0.86767,-0.28923 -0.31815,-0.31814 -0.31815,-0.86767 v -18.36572 q 0,-0.54953 0.31815,-0.83875 0.34707,-0.31815 0.86767,-0.31815 0.49168,0 0.80983,0.31815 0.34707,0.28922 0.34707,0.83875 v 18.36572 q 0,0.54953 -0.34707,0.86767 -0.31815,0.28923 -0.80983,0.28923 z" style="font-size:28.9224px;line-height:1.25;text-align:end;text-anchor:end;fill:#cccccc"/></g></g><g id="1" style="display:inline" transform="translate(29.40145,-4.6499958)"><g aria-label="1" style="font-size:16.0001px;font-family:Nunito;-inkscape-font-specification:Nunito;text-align:end;letter-spacing:0px;word-spacing:0px;text-anchor:end;stroke-width:1.33334px"><path d="m 81.048084,105.40837 q 1.458023,0 2.268036,0.72901 0.810013,0.72901 0.810013,2.02503 0,1.37703 -0.810013,2.10604 -0.729011,0.72901 -2.268036,0.72901 H 54.236655 q -1.539025,0 -2.349038,-0.72901 -0.729011,-0.72901 -0.729011,-2.10604 0,-1.29602 0.810013,-2.02503 0.810012,-0.72901 2.268036,-0.72901 H 64.280816 V 61.991675 l -8.829142,5.751092 q -0.64801,0.405006 -1.29602,0.405006 -1.134019,0 -2.025033,-1.053017 -0.810013,-1.053016 -0.810013,-2.268036 0,-1.701027 1.296021,-2.430039 l 12.312197,-8.019128 q 1.377022,-0.891014 2.835045,-0.891014 1.377022,0 2.268037,0.891014 0.891014,0.891014 0.891014,2.51104 v 48.519777 z"/></g><g aria-label="1" transform="scale(0.99527138,1.0047511)" style="font-size:16.0001px;font-family:Nunito;-inkscape-font-specification:Nunito;letter-spacing:0px;word-spacing:0px;stroke-width:1.33334px"><path d="m 506.13106,336.3714 q 2.9594,0 4.60351,1.4797 1.64411,1.4797 1.64411,4.11027 0,2.79499 -1.64411,4.27469 -1.4797,1.4797 -4.60351,1.4797 h -54.42004 q -3.12381,0 -4.76792,-1.4797 -1.4797,-1.4797 -1.4797,-4.27469 0,-2.63057 1.64411,-4.11027 1.64411,-1.4797 4.60351,-1.4797 h 20.38696 v -88.12429 l -17.9208,11.67318 q -1.31528,0.82205 -2.63057,0.82205 -2.30176,0 -4.11028,-2.13734 -1.64411,-2.13734 -1.64411,-4.60351 0,-3.45263 2.63058,-4.93233 l 24.99047,-16.27669 q 2.79499,-1.80852 5.75438,-1.80852 2.79499,0 4.60351,1.80852 1.80852,1.80852 1.80852,5.09674 v 98.48219 z"/></g><g><path style="color:#000000;fill:#af6500;fill-rule:evenodd;stroke-width:4.26669;stroke-linecap:round;stroke-linejoin:round;-inkscape-stroke:none" d="m 492.78996,295.3717 a 18.152727,18.325624 0 0 1 -18.15272,18.32563 18.152727,18.325624 0 0 1 -18.15273,-18.32563 18.152727,18.325624 0 0 1 18.15273,-18.32562 18.152727,18.325624 0 0 1 18.15272,18.32562 z"/><path style="color:#000000;fill:#000000;fill-rule:evenodd;stroke-linecap:round;stroke-linejoin:round;-inkscape-stroke:none" d="m 474.63672,274.91211 c -11.18939,0 -20.28516,9.19596 -20.28516,20.45898 0,11.26302 9.09577,20.45899 20.28516,20.45899 11.18939,0 20.28711,-9.19597 20.28711,-20.45899 0,-11.26302 -9.09772,-20.45898 -20.28711,-20.45898 z m 0,4.26758 c 8.86154,0 16.01953,7.21252 16.01953,16.1914 0,8.97889 -7.15799,16.19336 -16.01953,16.19336 -8.86154,0 -16.01953,-7.21447 -16.01953,-16.19336 0,-8.97888 7.15799,-16.1914 16.01953,-16.1914 z"/></g><g aria-label="0x1" style="font-size:16.0001px;font-family:Nunito;-inkscape-font-specification:Nunito;text-align:end;letter-spacing:0px;word-spacing:0px;text-anchor:end;stroke-width:1.33334px" transform="translate(4.88999,4e-4)"><path d="m 443.60479,525.55624 q -5.16269,0 -7.85071,-3.92535 -2.68801,-3.92536 -2.68801,-11.43473 0,-7.55205 2.68801,-11.4774 2.68802,-3.92536 7.85071,-3.92536 5.1627,0 7.85071,3.92536 2.68802,3.88269 2.68802,11.43473 0,7.55204 -2.68802,11.4774 -2.68801,3.92535 -7.85071,3.92535 z m 0,-2.94402 q 3.58402,0 5.2907,-3.02935 1.70667,-3.02935 1.70667,-9.42938 0,-6.4427 -1.70667,-9.42939 -1.66401,-2.98668 -5.2907,-2.98668 -3.58402,0 -5.29069,3.02935 -1.70668,2.98668 -1.70668,9.38672 0,6.40003 1.70668,9.42938 1.70667,3.02935 5.29069,3.02935 z" style="fill:#cccccc"/><path d="m 476.67166,522.56956 q 0.512,0.512 0.512,1.23734 0,0.64 -0.46934,1.10934 -0.46933,0.46933 -1.10933,0.46933 -0.68268,0 -1.23735,-0.59733 l -6.91203,-7.89338 -6.86937,7.89338 q -0.55467,0.59733 -1.23734,0.59733 -0.64001,0 -1.15201,-0.46933 -0.46934,-0.46934 -0.46934,-1.15201 0,-0.64 0.51201,-1.19467 l 7.0827,-7.97871 -6.78404,-7.72271 q -0.512,-0.59734 -0.512,-1.19468 0,-0.68267 0.46934,-1.152 0.512,-0.46934 1.10934,-0.46934 0.68267,0 1.23734,0.59734 l 6.61337,7.59471 6.61337,-7.59471 q 0.55467,-0.59734 1.23734,-0.59734 0.64,0 1.10934,0.46934 0.46933,0.46933 0.46933,1.10934 0,0.72533 -0.512,1.23734 l -6.78404,7.72271 z" style="fill:#cccccc"/><path d="m 499.49844,522.27089 q 0.768,0 1.19467,0.384 0.42667,0.384 0.42667,1.06667 0,0.72534 -0.42667,1.10934 -0.384,0.384 -1.19467,0.384 h -14.12275 q -0.81067,0 -1.23734,-0.384 -0.384,-0.384 -0.384,-1.10934 0,-0.68267 0.42667,-1.06667 0.42667,-0.384 1.19467,-0.384 h 5.2907 v -22.86946 l -4.65069,3.02935 q -0.34134,0.21333 -0.68267,0.21333 -0.59734,0 -1.06668,-0.55467 -0.42667,-0.55467 -0.42667,-1.19467 0,-0.896 0.68268,-1.28001 l 6.48536,-4.22402 q 0.72534,-0.46933 1.49335,-0.46933 0.72533,0 1.19467,0.46933 0.46933,0.46934 0.46933,1.32268 v 25.55747 z"/></g><path d="m 447.23335,77.56164 q -2.75978,0 -4.87961,-1.239901 -2.07983,-1.239901 -3.23974,-3.519719 -1.11991,-2.319814 -1.11991,-5.359571 0,-3.039756 1.11991,-5.319574 1.15991,-2.319814 3.23974,-3.559715 2.11983,-1.239901 4.87961,-1.239901 2.75978,0 4.87961,1.239901 2.11983,1.239901 3.23974,3.559715 1.15991,2.279818 1.15991,5.319574 0,3.039757 -1.15991,5.359571 -1.11991,2.279818 -3.23974,3.519719 -2.11983,1.239901 -4.87961,1.239901 z m 0,-2.679786 q 2.87977,0 4.39965,-1.87985 1.55987,-1.919846 1.55987,-5.559555 0,-3.559715 -1.55987,-5.479561 -1.55988,-1.959843 -4.39965,-1.959843 -2.83977,0 -4.39965,1.959843 -1.55987,1.919846 -1.55987,5.479561 0,3.599712 1.51988,5.519559 1.55987,1.919846 4.43964,1.919846 z" style="font-size:14.9988px;font-family:Nunito;-inkscape-font-specification:Nunito;text-align:end;letter-spacing:0px;word-spacing:0px;text-anchor:end;stroke-width:1.2499px"/><path d="m 471.15145,57.323259 q 6.99944,0 6.99944,7.719382 v 10.839133 q 0,0.759939 -0.43997,1.199904 -0.39996,0.399968 -1.1599,0.399968 -0.75994,0 -1.19991,-0.399968 -0.43996,-0.439965 -0.43996,-1.199904 V 65.242625 q 0,-2.719782 -1.07991,-3.959683 -1.03992,-1.239901 -3.35974,-1.239901 -2.67978,0 -4.27965,1.639869 -1.59988,1.639869 -1.59988,4.439645 v 9.759219 q 0,0.759939 -0.43996,1.199904 -0.39997,0.399968 -1.15991,0.399968 -0.75994,0 -1.1999,-0.399968 -0.43997,-0.439965 -0.43997,-1.199904 V 59.003125 q 0,-0.719943 0.43997,-1.159908 0.43996,-0.439964 1.1999,-0.439964 0.71994,0 1.11991,0.439964 0.43997,0.439965 0.43997,1.119911 v 2.039837 q 0.95992,-1.799856 2.67978,-2.719783 1.71987,-0.959923 3.91969,-0.959923 z" style="font-size:14.9988px;font-family:Nunito;-inkscape-font-specification:Nunito;text-align:end;letter-spacing:0px;word-spacing:0px;text-anchor:end;stroke-width:1.2499px"/><path d="m 499.14924,72.762024 q 0.43997,0 0.75994,0.359971 0.31997,0.359971 0.31997,0.919926 0,0.99992 -1.39988,1.839853 -1.43989,0.839933 -3.03976,1.279898 -1.59987,0.399968 -3.11975,0.399968 -4.51964,0 -7.15943,-2.679786 -2.59979,-2.679786 -2.59979,-7.399408 0,-2.99976 1.15991,-5.279577 1.1599,-2.319815 3.23974,-3.599712 2.11983,-1.279898 4.79961,-1.279898 3.7997,0 6.03952,2.479802 2.23982,2.479801 2.23982,6.719462 0,0.799936 -0.31997,1.159907 -0.31998,0.359971 -1.03992,0.359971 h -12.87897 q 0.35997,6.87945 6.51948,6.87945 1.55987,0 2.67979,-0.399968 1.11991,-0.439965 2.3998,-1.159907 1.03992,-0.599952 1.39989,-0.599952 z M 492.1498,59.843057 q -2.55979,0 -4.11967,1.599872 -1.51988,1.599872 -1.79986,4.519639 h 11.3191 q -0.08,-2.959763 -1.47988,-4.519639 -1.39989,-1.599872 -3.91969,-1.599872 z" style="font-size:14.9988px;font-family:Nunito;-inkscape-font-specification:Nunito;text-align:end;letter-spacing:0px;word-spacing:0px;text-anchor:end;stroke-width:1.2499px"/><path d="m 411.95339,95.035357 q 0.3,-0.03 0.45,0.09 0.165,0.105001 0.165,0.345002 0,0.465004 -0.51,0.510004 l -0.435,0.03 q -0.85501,0.06 -1.27501,0.525004 -0.42,0.450003 -0.495,1.365009 l -0.03,0.420002 h 1.63501 q 0.24,0 0.36,0.135001 0.135,0.120001 0.135,0.330003 0,0.225001 -0.135,0.360002 -0.135,0.135001 -0.39,0.135001 h -1.68002 l -0.465,5.835035 q -0.015,0.28501 -0.195,0.43501 -0.18,0.15 -0.435,0.15 -0.255,0 -0.43501,-0.15 -0.165,-0.15 -0.15,-0.43501 l 0.46501,-5.835035 h -1.00501 q -0.24,0 -0.375,-0.120001 -0.12,-0.135001 -0.12,-0.345002 0,-0.225002 0.135,-0.360003 0.135,-0.135001 0.405,-0.135001 h 1.03501 l 0.015,-0.270001 q 0.105,-1.45501 0.855,-2.175015 0.75001,-0.735005 2.17502,-0.825005 z" style="font-size:14.9988px;font-family:Nunito;-inkscape-font-specification:Nunito;text-align:end;letter-spacing:0px;word-spacing:0px;text-anchor:end;fill:#cccccc;stroke-width:1.2499px"/><path d="m 416.79841,98.170377 q 0.255,-0.03 0.39,0.105001 0.15,0.120001 0.15,0.360003 0,0.540003 -0.585,0.585003 l -0.405,0.045 q -1.09501,0.105 -1.65002,0.645004 -0.54,0.540002 -0.615,1.545012 l -0.3,3.64502 q -0.015,0.30001 -0.21,0.45001 -0.18,0.15 -0.43501,0.15 -0.255,0 -0.42,-0.15 -0.165,-0.15 -0.15,-0.45001 l 0.525,-6.36004 q 0.015,-0.270002 0.19501,-0.420003 0.195,-0.150001 0.45,-0.150001 0.255,0 0.39,0.150001 0.15,0.135001 0.135,0.405003 l -0.06,0.780005 q 0.39,-0.615004 0.99001,-0.930006 0.6,-0.315002 1.44001,-0.390002 z" style="font-size:14.9988px;font-family:Nunito;-inkscape-font-specification:Nunito;text-align:end;letter-spacing:0px;word-spacing:0px;text-anchor:end;fill:#cccccc;stroke-width:1.2499px"/><path d="m 420.92344,105.73043 q -1.02,0 -1.80001,-0.435 -0.76501,-0.43501 -1.18501,-1.23001 -0.405,-0.81001 -0.405,-1.87502 0,-1.215 0.435,-2.13001 0.45001,-0.915006 1.24501,-1.410009 0.81001,-0.510004 1.87501,-0.510004 1.03501,0 1.80002,0.435003 0.765,0.435003 1.185,1.245008 0.42001,0.810002 0.42001,1.875012 0,1.21501 -0.45001,2.13002 -0.435,0.915 -1.24501,1.41 -0.81,0.49501 -1.87501,0.49501 z m 0.015,-1.00501 q 1.09501,0 1.69501,-0.825 0.61501,-0.82501 0.61501,-2.25002 0,-1.20001 -0.57001,-1.845012 -0.555,-0.660004 -1.59001,-0.660004 -1.095,0 -1.71001,0.840006 -0.615,0.84001 -0.615,2.25001 0,1.21501 0.555,1.86002 0.555,0.63 1.62001,0.63 z" style="font-size:14.9988px;font-family:Nunito;-inkscape-font-specification:Nunito;text-align:end;letter-spacing:0px;word-spacing:0px;text-anchor:end;fill:#cccccc;stroke-width:1.2499px"/><path d="m 434.63354,98.140377 q 1.14001,0 1.72501,0.645005 0.585,0.630004 0.585,1.845008 0,0.28501 -0.015,0.43501 l -0.315,4.03502 q -0.015,0.30001 -0.21,0.45001 -0.18,0.15 -0.435,0.15 -0.25501,0 -0.42001,-0.15 -0.165,-0.15 -0.15,-0.45001 l 0.315,-3.97502 q 0.015,-0.12 0.015,-0.36001 0,-0.825001 -0.36001,-1.215003 -0.345,-0.390003 -1.065,-0.390003 -0.91501,0 -1.45501,0.600004 -0.54001,0.600002 -0.61501,1.710012 l -0.285,3.63002 q -0.03,0.30001 -0.225,0.45001 -0.18,0.15 -0.435,0.15 -0.25501,0 -0.42001,-0.15 -0.165,-0.15 -0.135,-0.45001 l 0.315,-3.97502 q 0.015,-0.12 0.015,-0.36001 0,-0.825001 -0.36,-1.215003 -0.345,-0.390003 -1.06501,-0.390003 -0.915,0 -1.45501,0.600004 -0.525,0.585002 -0.63,1.710012 l -0.3,3.63002 q -0.015,0.30001 -0.21,0.45001 -0.18,0.15 -0.43501,0.15 -0.255,0 -0.42,-0.15 -0.165,-0.15 -0.15,-0.45001 l 0.525,-6.360039 q 0.015,-0.270002 0.19501,-0.420003 0.195,-0.150001 0.45,-0.150001 0.255,0 0.405,0.150001 0.15,0.135001 0.135,0.405003 l -0.06,0.675005 q 0.75001,-1.260009 2.29502,-1.260009 0.84,0 1.38001,0.360003 0.555,0.345002 0.78,1.020006 0.375,-0.660004 1.02001,-1.020006 0.645,-0.360003 1.47001,-0.360003 z" style="font-size:14.9988px;font-family:Nunito;-inkscape-font-specification:Nunito;text-align:end;letter-spacing:0px;word-spacing:0px;text-anchor:end;fill:#cccccc;stroke-width:1.2499px"/><path d="m 443.46858,105.62543 q -0.30001,0 -0.46501,-0.165 -0.15,-0.165 -0.12,-0.46501 l 0.75001,-9.43506 q 0.015,-0.270002 0.195,-0.420003 0.18,-0.165001 0.45,-0.165001 0.285,0 0.43501,0.180001 0.165,0.165001 0.15,0.450003 l -0.70501,8.97006 h 4.81503 q 0.27001,0 0.40501,0.15 0.15,0.135 0.15,0.36 0,0.25501 -0.15,0.40501 -0.15,0.135 -0.43501,0.135 z" style="font-size:14.9988px;font-family:Nunito;-inkscape-font-specification:Nunito;text-align:end;letter-spacing:0px;word-spacing:0px;text-anchor:end;fill:#cccccc;stroke-width:1.2499px"/><path d="m 454.22366,98.140377 q 2.64002,0 2.64002,2.505013 0,0.27001 -0.015,0.40501 l -0.315,4.09502 q -0.015,0.27001 -0.18,0.42001 -0.16501,0.135 -0.42001,0.135 -0.27,0 -0.435,-0.165 -0.165,-0.18 -0.135,-0.43501 l 0.045,-0.66 q -0.33,0.615 -0.91501,0.96001 -0.57,0.33 -1.32001,0.33 -1.095,0 -1.80001,-0.58501 -0.69,-0.6 -0.69,-1.51501 0,-0.825 0.435,-1.305 0.435,-0.49501 1.39501,-0.72001 0.96001,-0.225 2.59502,-0.225 h 0.54 l 0.03,-0.435 0.015,-0.28501 q 0,-0.780001 -0.39,-1.140004 -0.375,-0.375002 -1.17001,-0.375002 -1.08001,0 -2.32501,0.735005 -0.15001,0.075 -0.24001,0.075 -0.18,0 -0.3,-0.135001 -0.12,-0.150001 -0.12,-0.345002 0,-0.330002 0.285,-0.510003 0.54001,-0.375003 1.29001,-0.600004 0.76501,-0.225002 1.50001,-0.225002 z m -0.795,6.630043 q 0.855,0 1.45501,-0.6 0.6,-0.60001 0.66,-1.54501 l 0.03,-0.46501 h -0.42 q -1.24501,0 -1.95002,0.13501 -0.69,0.12 -0.99,0.42 -0.3,0.285 -0.3,0.81 0,0.57001 0.405,0.91501 0.405,0.33 1.11001,0.33 z" style="font-size:14.9988px;font-family:Nunito;-inkscape-font-specification:Nunito;text-align:end;letter-spacing:0px;word-spacing:0px;text-anchor:end;fill:#cccccc;stroke-width:1.2499px"/><path d="m 460.53872,102.98541 q -0.015,0.105 -0.015,0.3 0,0.72001 0.33,1.09501 0.33,0.375 0.93,0.375 0.19501,0 0.37501,-0.015 0.18,-0.03 0.27,-0.03 0.15,0 0.24,0.12 0.105,0.12 0.105,0.33 0,0.31501 -0.27,0.45001 -0.255,0.12 -0.91501,0.12 -1.155,0 -1.77001,-0.70501 -0.6,-0.72 -0.495,-1.98001 l 0.285,-3.765025 h -0.99001 q -0.24,0 -0.375,-0.120001 -0.12,-0.135001 -0.12,-0.345002 0,-0.240002 0.135,-0.360003 0.15,-0.135001 0.405,-0.135001 h 1.02001 l 0.135,-1.710011 q 0.03,-0.255002 0.195,-0.405003 0.18,-0.165001 0.45001,-0.165001 0.285,0 0.435,0.165001 0.165,0.165001 0.135,0.435003 l -0.135,1.680011 h 1.65001 q 0.225,0 0.36,0.135001 0.135,0.120001 0.135,0.330003 0,0.240001 -0.135,0.375002 -0.135,0.120001 -0.39,0.120001 h -1.69501 z" style="font-size:14.9988px;font-family:Nunito;-inkscape-font-specification:Nunito;text-align:end;letter-spacing:0px;word-spacing:0px;text-anchor:end;fill:#cccccc;stroke-width:1.2499px"/><path d="m 464.40874,105.70043 q -0.255,0 -0.42,-0.15 -0.165,-0.15 -0.15,-0.45001 l 0.525,-6.360039 q 0.015,-0.285002 0.19501,-0.420003 0.195,-0.150001 0.45,-0.150001 0.255,0 0.42,0.150001 0.165,0.135001 0.15,0.420003 l -0.525,6.360039 q -0.015,0.30001 -0.21,0.45001 -0.18,0.15 -0.43501,0.15 z m 0.79501,-9.105063 q -0.36,0 -0.585,-0.210001 -0.22501,-0.210002 -0.22501,-0.555004 0,-0.330002 0.22501,-0.540004 0.225,-0.210001 0.585,-0.210001 0.36,0 0.585,0.210001 0.22501,0.210002 0.22501,0.540004 0,0.345002 -0.22501,0.555004 -0.225,0.210001 -0.585,0.210001 z" style="font-size:14.9988px;font-family:Nunito;-inkscape-font-specification:Nunito;text-align:end;letter-spacing:0px;word-spacing:0px;text-anchor:end;fill:#cccccc;stroke-width:1.2499px"/><path d="m 471.44379,98.140377 q 1.23001,0 1.87502,0.645005 0.645,0.645004 0.645,1.875008 0,0.27001 -0.015,0.40501 l -0.315,4.03502 q -0.03,0.30001 -0.21,0.45001 -0.18,0.15 -0.435,0.15 -0.28501,0 -0.45001,-0.15 -0.15,-0.15 -0.12,-0.45001 l 0.315,-3.96002 q 0.015,-0.105 0.015,-0.315 0,-1.665016 -1.60501,-1.665016 -1.02,0 -1.62001,0.615004 -0.6,0.600002 -0.69,1.665012 l -0.3,3.66002 q -0.015,0.30001 -0.19501,0.45001 -0.18,0.15 -0.45,0.15 -0.27,0 -0.435,-0.15 -0.15,-0.15 -0.135,-0.45001 l 0.525,-6.360039 q 0.015,-0.270002 0.195,-0.420003 0.195,-0.150001 0.45,-0.150001 0.25501,0 0.40501,0.150001 0.15,0.150001 0.135,0.405003 l -0.06,0.720005 q 0.375,-0.615004 1.02001,-0.960006 0.645,-0.345003 1.455,-0.345003 z" style="font-size:14.9988px;font-family:Nunito;-inkscape-font-specification:Nunito;text-align:end;letter-spacing:0px;word-spacing:0px;text-anchor:end;fill:#cccccc;stroke-width:1.2499px"/><path d="m 485.8139,98.170377 q 0.27,0 0.42,0.165002 0.165,0.150001 0.135,0.435002 l -0.51,6.375039 q -0.015,0.25501 -0.21001,0.40501 -0.18,0.15 -0.435,0.15 -0.255,0 -0.405,-0.135 -0.15,-0.15 -0.135,-0.40501 l 0.06,-0.72 q -0.375,0.615 -1.00501,0.96001 -0.63,0.33 -1.41001,0.33 -1.21501,0 -1.84501,-0.63001 -0.63,-0.645 -0.63,-1.87501 0,-0.27 0.015,-0.405 l 0.315,-4.050029 q 0.03,-0.285001 0.21,-0.435002 0.195,-0.165002 0.45,-0.165002 0.27,0 0.42,0.165002 0.16501,0.150001 0.13501,0.435002 l -0.31501,3.975029 q -0.015,0.105 -0.015,0.315 0,1.65001 1.57501,1.65001 0.97501,0 1.56001,-0.6 0.58501,-0.60001 0.66001,-1.66501 l 0.3,-3.675029 q 0.03,-0.285001 0.21,-0.435002 0.195,-0.165002 0.45001,-0.165002 z" style="font-size:14.9988px;font-family:Nunito;-inkscape-font-specification:Nunito;text-align:end;letter-spacing:0px;word-spacing:0px;text-anchor:end;stroke-width:1.2499px"/><path d="m 492.24895,98.140377 q 1.23001,0 1.87501,0.645005 0.64501,0.645004 0.64501,1.875008 0,0.27001 -0.015,0.40501 l -0.315,4.03502 q -0.03,0.30001 -0.21001,0.45001 -0.18,0.15 -0.435,0.15 -0.285,0 -0.45,-0.15 -0.15,-0.15 -0.12,-0.45001 l 0.315,-3.96002 q 0.015,-0.105 0.015,-0.315 0,-1.665016 -1.60501,-1.665016 -1.02001,0 -1.62001,0.615004 -0.60001,0.600002 -0.69001,1.665012 l -0.3,3.66002 q -0.015,0.30001 -0.195,0.45001 -0.18,0.15 -0.45,0.15 -0.27,0 -0.43501,-0.15 -0.15,-0.15 -0.135,-0.45001 l 0.52501,-6.360039 q 0.015,-0.270002 0.195,-0.420003 0.195,-0.150001 0.45,-0.150001 0.255,0 0.405,0.150001 0.15001,0.150001 0.13501,0.405003 l -0.06,0.720005 q 0.37501,-0.615004 1.02001,-0.960006 0.64501,-0.345003 1.45501,-0.345003 z" style="font-size:14.9988px;font-family:Nunito;-inkscape-font-specification:Nunito;text-align:end;letter-spacing:0px;word-spacing:0px;text-anchor:end;stroke-width:1.2499px"/><path d="m 497.31899,102.1304 q -0.27,0 -0.405,-0.12 -0.135,-0.135 -0.135,-0.36 0,-0.24 0.15,-0.375 0.15,-0.15 0.435,-0.15 h 3.30003 q 0.255,0 0.39,0.15 0.15,0.135 0.15,0.345 0,0.24 -0.165,0.375 -0.15,0.135 -0.435,0.135 z" style="font-size:14.9988px;font-family:Nunito;-inkscape-font-specification:Nunito;text-align:end;letter-spacing:0px;word-spacing:0px;text-anchor:end;stroke-width:1.2499px"/><path d="m 384.54824,113.78546 q 0.3,-0.03 0.45,0.09 0.165,0.105 0.165,0.345 0,0.465 -0.51,0.51 l -0.435,0.03 q -0.85501,0.06 -1.27501,0.52501 -0.42,0.45 -0.495,1.365 l -0.03,0.42001 h 1.63501 q 0.24,0 0.36,0.135 0.135,0.12 0.135,0.33 0,0.225 -0.135,0.36 -0.135,0.135 -0.39,0.135 h -1.68001 l -0.46501,5.83504 q -0.015,0.285 -0.195,0.43501 -0.18,0.15 -0.435,0.15 -0.255,0 -0.435,-0.15 -0.16501,-0.15001 -0.15001,-0.43501 l 0.46501,-5.83504 h -1.00501 q -0.24,0 -0.375,-0.12 -0.12,-0.135 -0.12,-0.345 0,-0.225 0.135,-0.36 0.135,-0.135 0.405,-0.135 h 1.03501 l 0.015,-0.27 q 0.105,-1.45501 0.855,-2.17502 0.75001,-0.735 2.17502,-0.825 z" style="font-size:14.9988px;font-family:Nunito;-inkscape-font-specification:Nunito;text-align:end;letter-spacing:0px;word-spacing:0px;text-anchor:end;fill:#cccccc;stroke-width:1.2499px"/><path d="m 389.39326,116.92048 q 0.255,-0.03 0.39,0.105 0.15,0.12 0.15,0.36 0,0.54 -0.585,0.585 l -0.405,0.045 q -1.09501,0.105 -1.65001,0.64501 -0.54001,0.54 -0.61501,1.54501 l -0.3,3.64502 q -0.015,0.3 -0.21,0.45001 -0.18,0.15 -0.43501,0.15 -0.255,0 -0.42,-0.15 -0.165,-0.15001 -0.15,-0.45001 l 0.525,-6.36004 q 0.015,-0.27 0.19501,-0.42 0.195,-0.15 0.45,-0.15 0.255,0 0.39,0.15 0.15,0.135 0.135,0.405 l -0.06,0.78001 q 0.39,-0.61501 0.99001,-0.93001 0.6,-0.315 1.44001,-0.39 z" style="font-size:14.9988px;font-family:Nunito;-inkscape-font-specification:Nunito;text-align:end;letter-spacing:0px;word-spacing:0px;text-anchor:end;fill:#cccccc;stroke-width:1.2499px"/><path d="m 393.51829,124.48053 q -1.02,0 -1.80001,-0.43501 -0.765,-0.435 -1.18501,-1.23 -0.405,-0.81001 -0.405,-1.87502 0,-1.215 0.435,-2.13001 0.45001,-0.91501 1.24501,-1.41001 0.81001,-0.51 1.87501,-0.51 1.03501,0 1.80002,0.435 0.765,0.435 1.185,1.24501 0.42001,0.81 0.42001,1.87501 0,1.21501 -0.45001,2.13001 -0.435,0.91501 -1.245,1.41001 -0.81001,0.49501 -1.87502,0.49501 z m 0.015,-1.00501 q 1.09501,0 1.69501,-0.82501 0.61501,-0.825 0.61501,-2.25001 0,-1.20001 -0.57001,-1.84501 -0.555,-0.66001 -1.59001,-0.66001 -1.095,0 -1.71001,0.84001 -0.615,0.84 -0.615,2.25001 0,1.21501 0.555,1.86002 0.55501,0.63 1.62001,0.63 z" style="font-size:14.9988px;font-family:Nunito;-inkscape-font-specification:Nunito;text-align:end;letter-spacing:0px;word-spacing:0px;text-anchor:end;fill:#cccccc;stroke-width:1.2499px"/><path d="m 407.22839,116.89048 q 1.14001,0 1.72501,0.645 0.585,0.63 0.585,1.84501 0,0.285 -0.015,0.43501 l -0.315,4.03502 q -0.015,0.3 -0.21,0.45001 -0.18,0.15 -0.435,0.15 -0.255,0 -0.42001,-0.15 -0.165,-0.15001 -0.15,-0.45001 l 0.31501,-3.97502 q 0.015,-0.12 0.015,-0.36001 0,-0.825 -0.36001,-1.215 -0.345,-0.39001 -1.065,-0.39001 -0.91501,0 -1.45501,0.60001 -0.54001,0.6 -0.61501,1.71001 l -0.285,3.63002 q -0.03,0.3 -0.225,0.45001 -0.18,0.15 -0.435,0.15 -0.25501,0 -0.42001,-0.15 -0.165,-0.15001 -0.135,-0.45001 l 0.315,-3.97502 q 0.015,-0.12 0.015,-0.36001 0,-0.825 -0.36,-1.215 -0.345,-0.39001 -1.065,-0.39001 -0.91501,0 -1.45501,0.60001 -0.52501,0.585 -0.63001,1.71001 l -0.3,3.63002 q -0.015,0.3 -0.21,0.45001 -0.18,0.15 -0.43501,0.15 -0.255,0 -0.42,-0.15 -0.165,-0.15001 -0.15,-0.45001 l 0.525,-6.36004 q 0.015,-0.27 0.19501,-0.42 0.195,-0.15 0.45,-0.15 0.255,0 0.405,0.15 0.15,0.135 0.135,0.405 l -0.06,0.675 q 0.75001,-1.26 2.29502,-1.26 0.84,0 1.38001,0.36 0.555,0.345 0.78,1.02001 0.375,-0.66001 1.02001,-1.02001 0.645,-0.36 1.47001,-0.36 z" style="font-size:14.9988px;font-family:Nunito;-inkscape-font-specification:Nunito;text-align:end;letter-spacing:0px;word-spacing:0px;text-anchor:end;fill:#cccccc;stroke-width:1.2499px"/><path d="m 420.72846,114.73046 q -1.24501,0 -2.16002,0.58501 -0.9,0.585 -1.38001,1.68001 -0.48,1.095 -0.48,2.59501 0,1.86002 0.91501,2.86502 0.915,1.00501 2.71502,1.00501 1.26,0 2.44501,-0.405 l 0.255,-3.22502 h -2.13001 q -0.27,0 -0.42,-0.12 -0.15,-0.13501 -0.15,-0.34501 0,-0.225 0.15,-0.36 0.165,-0.135 0.42,-0.135 h 2.70002 q 0.27,0 0.435,0.18 0.165,0.165 0.135,0.42 l -0.27,3.67503 q -0.03,0.36 -0.165,0.54 -0.12,0.18 -0.405,0.255 -0.63001,0.25501 -1.48501,0.40501 -0.84001,0.15 -1.59001,0.15 -2.32502,0 -3.58503,-1.27501 -1.24501,-1.29001 -1.24501,-3.58503 0,-1.81501 0.64501,-3.15002 0.645,-1.35001 1.83001,-2.07001 1.20001,-0.735 2.82002,-0.735 1.09501,0 1.98001,0.315 0.88501,0.3 1.50001,0.87 0.285,0.24 0.285,0.54001 0,0.21 -0.15,0.375 -0.135,0.165 -0.33,0.165 -0.18,0 -0.36,-0.135 -0.66001,-0.555 -1.35001,-0.81001 -0.69001,-0.27 -1.57501,-0.27 z" style="font-size:14.9988px;font-family:Nunito;-inkscape-font-specification:Nunito;text-align:end;letter-spacing:0px;word-spacing:0px;text-anchor:end;fill:#cccccc;stroke-width:1.2499px"/><path d="m 430.37354,116.92048 q 0.255,-0.03 0.39,0.105 0.15,0.12 0.15,0.36 0,0.54 -0.585,0.585 l -0.405,0.045 q -1.09501,0.105 -1.65002,0.64501 -0.54,0.54 -0.615,1.54501 l -0.3,3.64502 q -0.015,0.3 -0.21,0.45001 -0.18,0.15 -0.43501,0.15 -0.255,0 -0.42,-0.15 -0.165,-0.15001 -0.15,-0.45001 l 0.525,-6.36004 q 0.015,-0.27 0.19501,-0.42 0.195,-0.15 0.45,-0.15 0.255,0 0.39,0.15 0.15,0.135 0.135,0.405 l -0.06,0.78001 q 0.39,-0.61501 0.99001,-0.93001 0.6,-0.315 1.44001,-0.39 z" style="font-size:14.9988px;font-family:Nunito;-inkscape-font-specification:Nunito;text-align:end;letter-spacing:0px;word-spacing:0px;text-anchor:end;fill:#cccccc;stroke-width:1.2499px"/><path d="m 432.32356,120.9105 v 0.06 q 0,1.20001 0.585,1.86002 0.6,0.66 1.72501,0.66 1.18501,0 2.08502,-0.66 0.15,-0.105 0.3,-0.105 0.18,0 0.285,0.135 0.12,0.135 0.12,0.315 0,0.27 -0.24,0.495 -0.405,0.36 -1.14001,0.58501 -0.72,0.225 -1.47001,0.225 -1.59001,0 -2.53502,-0.96001 -0.93,-0.96001 -0.93,-2.58002 0,-1.2 0.435,-2.11501 0.45,-0.91501 1.26001,-1.42501 0.825,-0.51 1.90501,-0.51 1.47001,0 2.25002,0.885 0.78,0.87001 0.78,2.53502 0,0.285 -0.15,0.45 -0.15,0.15 -0.405,0.15 z m 2.43001,-3.07502 q -1.005,0 -1.60501,0.60001 -0.6,0.585 -0.765,1.69501 h 4.26002 q 0.045,-1.12501 -0.465,-1.71001 -0.495,-0.58501 -1.42501,-0.58501 z" style="font-size:14.9988px;font-family:Nunito;-inkscape-font-specification:Nunito;text-align:end;letter-spacing:0px;word-spacing:0px;text-anchor:end;fill:#cccccc;stroke-width:1.2499px"/><path d="m 440.22862,120.9105 v 0.06 q 0,1.20001 0.585,1.86002 0.6,0.66 1.72501,0.66 1.18501,0 2.08502,-0.66 0.15,-0.105 0.3,-0.105 0.18,0 0.285,0.135 0.12,0.135 0.12,0.315 0,0.27 -0.24,0.495 -0.405,0.36 -1.14001,0.58501 -0.72,0.225 -1.47001,0.225 -1.59001,0 -2.53502,-0.96001 -0.93,-0.96001 -0.93,-2.58002 0,-1.2 0.435,-2.11501 0.45,-0.91501 1.26001,-1.42501 0.825,-0.51 1.90501,-0.51 1.47001,0 2.25002,0.885 0.78,0.87001 0.78,2.53502 0,0.285 -0.15,0.45 -0.15,0.15 -0.405,0.15 z m 2.43001,-3.07502 q -1.005,0 -1.60501,0.60001 -0.6,0.585 -0.765,1.69501 h 4.26002 q 0.045,-1.12501 -0.465,-1.71001 -0.495,-0.58501 -1.42501,-0.58501 z" style="font-size:14.9988px;font-family:Nunito;-inkscape-font-specification:Nunito;text-align:end;letter-spacing:0px;word-spacing:0px;text-anchor:end;fill:#cccccc;stroke-width:1.2499px"/><path d="m 452.3637,117.14548 q 0.165,-0.165 0.39,-0.165 0.21,0 0.36001,0.165 0.165,0.15 0.165,0.36 0,0.225 -0.19501,0.405 l -3.15002,2.70002 3.01502,2.91002 q 0.15001,0.165 0.15001,0.36 0,0.225 -0.18001,0.40501 -0.18,0.18 -0.405,0.18 -0.195,0 -0.375,-0.18 l -3.57003,-3.39003 -0.24,2.98502 q -0.015,0.28501 -0.195,0.43501 -0.18,0.135 -0.435,0.135 -0.27,0 -0.435,-0.165 -0.165,-0.16501 -0.15,-0.45001 l 0.75,-9.54006 q 0.015,-0.27 0.21,-0.42 0.195,-0.15 0.45,-0.15 0.27001,0 0.42001,0.165 0.15,0.15 0.135,0.45 l -0.48,6.06004 z" style="font-size:14.9988px;font-family:Nunito;-inkscape-font-specification:Nunito;text-align:end;letter-spacing:0px;word-spacing:0px;text-anchor:end;fill:#cccccc;stroke-width:1.2499px"/><path d="m 467.06379,116.89048 q 1.14001,0 1.72502,0.645 0.585,0.63 0.585,1.84501 0,0.285 -0.015,0.43501 l -0.315,4.03502 q -0.015,0.3 -0.21,0.45001 -0.18001,0.15 -0.43501,0.15 -0.255,0 -0.42,-0.15 -0.165,-0.15001 -0.15,-0.45001 l 0.315,-3.97502 q 0.015,-0.12 0.015,-0.36001 0,-0.825 -0.36,-1.215 -0.345,-0.39001 -1.06501,-0.39001 -0.915,0 -1.45501,0.60001 -0.54,0.6 -0.615,1.71001 l -0.285,3.63002 q -0.03,0.3 -0.22501,0.45001 -0.18,0.15 -0.435,0.15 -0.255,0 -0.42,-0.15 -0.165,-0.15001 -0.135,-0.45001 l 0.315,-3.97502 q 0.015,-0.12 0.015,-0.36001 0,-0.825 -0.36,-1.215 -0.345,-0.39001 -1.06501,-0.39001 -0.91501,0 -1.45501,0.60001 -0.525,0.585 -0.63,1.71001 l -0.30001,3.63002 q -0.015,0.3 -0.21,0.45001 -0.18,0.15 -0.435,0.15 -0.255,0 -0.42,-0.15 -0.165,-0.15001 -0.15,-0.45001 l 0.525,-6.36004 q 0.015,-0.27 0.195,-0.42 0.195,-0.15 0.45,-0.15 0.25501,0 0.40501,0.15 0.15,0.135 0.135,0.405 l -0.06,0.675 q 0.75,-1.26 2.29501,-1.26 0.84001,0 1.38001,0.36 0.55501,0.345 0.78001,1.02001 0.375,-0.66001 1.02,-1.02001 0.64501,-0.36 1.47001,-0.36 z" style="font-size:14.9988px;font-family:Nunito;-inkscape-font-specification:Nunito;text-align:end;letter-spacing:0px;word-spacing:0px;text-anchor:end;stroke-width:1.2499px"/><path d="m 474.45883,124.48053 q -1.02,0 -1.80001,-0.43501 -0.765,-0.435 -1.18501,-1.23 -0.405,-0.81001 -0.405,-1.87502 0,-1.215 0.435,-2.13001 0.45001,-0.91501 1.24501,-1.41001 0.81001,-0.51 1.87501,-0.51 1.03501,0 1.80002,0.435 0.765,0.435 1.185,1.24501 0.42001,0.81 0.42001,1.87501 0,1.21501 -0.45001,2.13001 -0.435,0.91501 -1.245,1.41001 -0.81001,0.49501 -1.87502,0.49501 z m 0.015,-1.00501 q 1.09501,0 1.69501,-0.82501 0.61501,-0.825 0.61501,-2.25001 0,-1.20001 -0.57001,-1.84501 -0.555,-0.66001 -1.59001,-0.66001 -1.095,0 -1.71001,0.84001 -0.615,0.84 -0.615,2.25001 0,1.21501 0.555,1.86002 0.55501,0.63 1.62001,0.63 z" style="font-size:14.9988px;font-family:Nunito;-inkscape-font-specification:Nunito;text-align:end;letter-spacing:0px;word-spacing:0px;text-anchor:end;stroke-width:1.2499px"/><path d="m 483.6989,116.89048 q 1.23001,0 1.87501,0.645 0.645,0.64501 0.645,1.87501 0,0.27001 -0.015,0.40501 l -0.315,4.03502 q -0.03,0.3 -0.21,0.45001 -0.18,0.15 -0.435,0.15 -0.285,0 -0.45001,-0.15 -0.15,-0.15001 -0.12,-0.45001 l 0.31501,-3.96002 q 0.015,-0.105 0.015,-0.31501 0,-1.66501 -1.60501,-1.66501 -1.02001,0 -1.62002,0.61501 -0.6,0.6 -0.69,1.66501 l -0.3,3.66002 q -0.015,0.3 -0.195,0.45001 -0.18,0.15 -0.45001,0.15 -0.27,0 -0.435,-0.15 -0.15,-0.15001 -0.135,-0.45001 l 0.525,-6.36004 q 0.015,-0.27 0.195,-0.42 0.19501,-0.15 0.45001,-0.15 0.255,0 0.405,0.15 0.15,0.15 0.135,0.405 l -0.06,0.72001 q 0.375,-0.61501 1.02001,-0.96001 0.645,-0.345 1.45501,-0.345 z" style="font-size:14.9988px;font-family:Nunito;-inkscape-font-specification:Nunito;text-align:end;letter-spacing:0px;word-spacing:0px;text-anchor:end;stroke-width:1.2499px"/><path d="m 491.30396,124.48053 q -1.02001,0 -1.80002,-0.43501 -0.765,-0.435 -1.185,-1.23 -0.40501,-0.81001 -0.40501,-1.87502 0,-1.215 0.43501,-2.13001 0.45,-0.91501 1.245,-1.41001 0.81001,-0.51 1.87502,-0.51 1.035,0 1.80001,0.435 0.765,0.435 1.18501,1.24501 0.42,0.81 0.42,1.87501 0,1.21501 -0.45,2.13001 -0.43501,0.91501 -1.24501,1.41001 -0.81001,0.49501 -1.87501,0.49501 z m 0.015,-1.00501 q 1.095,0 1.69501,-0.82501 0.615,-0.825 0.615,-2.25001 0,-1.20001 -0.57,-1.84501 -0.55501,-0.66001 -1.59001,-0.66001 -1.09501,0 -1.71001,0.84001 -0.61501,0.84 -0.61501,2.25001 0,1.21501 0.55501,1.86002 0.555,0.63 1.62001,0.63 z" style="font-size:14.9988px;font-family:Nunito;-inkscape-font-specification:Nunito;text-align:end;letter-spacing:0px;word-spacing:0px;text-anchor:end;stroke-width:1.2499px"/><path d="m 497.319,120.8805 q -0.27001,0 -0.40501,-0.12 -0.135,-0.135 -0.135,-0.36 0,-0.24 0.15,-0.375 0.15,-0.15 0.43501,-0.15 h 3.30002 q 0.255,0 0.39,0.15 0.15,0.135 0.15,0.345 0,0.24 -0.165,0.375 -0.15,0.135 -0.435,0.135 z" style="font-size:14.9988px;font-family:Nunito;-inkscape-font-specification:Nunito;text-align:end;letter-spacing:0px;word-spacing:0px;text-anchor:end;stroke-width:1.2499px"/><path d="m 387.7582,142.39062 q 0.075,0.15 0.075,0.27 0,0.225 -0.195,0.39001 -0.195,0.165 -0.435,0.165 -0.16501,0 -0.31501,-0.09 -0.15,-0.09 -0.24,-0.27001 l -1.65001,-3.12002 q -0.33,-0.615 -0.735,-0.84 -0.40501,-0.24 -1.14001,-0.24 h -1.87501 l -0.30001,3.96002 q -0.015,0.27 -0.195,0.43501 -0.18,0.15 -0.465,0.15 -0.285,0 -0.45,-0.165 -0.15,-0.18001 -0.12,-0.48001 l 0.735,-9.40506 q 0.015,-0.285 0.195,-0.435 0.18,-0.165 0.45,-0.165 h 3.72003 q 1.62001,0 2.49002,0.735 0.87,0.72 0.87,2.08501 0,1.38001 -0.75,2.19002 -0.75001,0.81 -2.23502,0.975 0.33,0.12001 0.58501,0.39001 0.255,0.255 0.51,0.735 z m -3.34502,-4.75503 q 1.29001,0 1.92001,-0.54 0.645,-0.54001 0.645,-1.65002 0,-0.96 -0.57,-1.41001 -0.555,-0.465 -1.68001,-0.465 h -3.09002 l -0.315,4.06503 z" style="font-size:14.9988px;font-family:Nunito;-inkscape-font-specification:Nunito;text-align:end;letter-spacing:0px;word-spacing:0px;text-anchor:end;fill:#cccccc;stroke-width:1.2499px"/><path d="m 393.02325,143.23063 q -1.02001,0 -1.80002,-0.43501 -0.765,-0.435 -1.185,-1.23 -0.40501,-0.81001 -0.40501,-1.87502 0,-1.21501 0.43501,-2.13001 0.45,-0.91501 1.24501,-1.41001 0.81,-0.51 1.87501,-0.51 1.035,0 1.80001,0.435 0.76501,0.435 1.18501,1.24501 0.42,0.81 0.42,1.87501 0,1.21501 -0.45,2.13001 -0.43501,0.91501 -1.24501,1.41001 -0.81001,0.49501 -1.87501,0.49501 z m 0.015,-1.00501 q 1.095,0 1.69501,-0.82501 0.615,-0.825 0.615,-2.25001 0,-1.20001 -0.57,-1.84501 -0.55501,-0.66001 -1.59001,-0.66001 -1.09501,0 -1.71001,0.84001 -0.61501,0.84 -0.61501,2.25001 0,1.21501 0.55501,1.86002 0.555,0.63 1.62001,0.63 z" style="font-size:14.9988px;font-family:Nunito;-inkscape-font-specification:Nunito;text-align:end;letter-spacing:0px;word-spacing:0px;text-anchor:end;fill:#cccccc;stroke-width:1.2499px"/><path d="m 406.73334,135.64058 q 1.14001,0 1.72501,0.645 0.58501,0.63 0.58501,1.84501 0,0.285 -0.015,0.43501 l -0.315,4.03502 q -0.015,0.3 -0.21001,0.45001 -0.18,0.15 -0.435,0.15 -0.255,0 -0.42,-0.15 -0.165,-0.15001 -0.15,-0.45001 l 0.315,-3.97502 q 0.015,-0.12001 0.015,-0.36001 0,-0.825 -0.36,-1.215 -0.345,-0.39001 -1.06501,-0.39001 -0.91501,0 -1.45501,0.60001 -0.54,0.6 -0.615,1.71001 l -0.28501,3.63002 q -0.03,0.3 -0.225,0.45001 -0.18,0.15 -0.435,0.15 -0.255,0 -0.42,-0.15 -0.165,-0.15001 -0.135,-0.45001 l 0.315,-3.97502 q 0.015,-0.12001 0.015,-0.36001 0,-0.825 -0.36,-1.215 -0.34501,-0.39001 -1.06501,-0.39001 -0.91501,0 -1.45501,0.60001 -0.525,0.585 -0.63,1.71001 l -0.30001,3.63002 q -0.015,0.3 -0.21,0.45001 -0.18,0.15 -0.435,0.15 -0.255,0 -0.42,-0.15 -0.165,-0.15001 -0.15,-0.45001 l 0.525,-6.36004 q 0.015,-0.27 0.195,-0.42 0.195,-0.15 0.45,-0.15 0.255,0 0.40501,0.15 0.15,0.135 0.135,0.405 l -0.06,0.675 q 0.75,-1.26 2.29501,-1.26 0.84001,0 1.38001,0.36 0.555,0.345 0.78001,1.02 0.375,-0.66 1.02,-1.02 0.64501,-0.36 1.47001,-0.36 z" style="font-size:14.9988px;font-family:Nunito;-inkscape-font-specification:Nunito;text-align:end;letter-spacing:0px;word-spacing:0px;text-anchor:end;fill:#cccccc;stroke-width:1.2499px"/><path d="m 414.35338,135.64058 q 2.64002,0 2.64002,2.50501 0,0.27 -0.015,0.40501 l -0.315,4.09502 q -0.015,0.27 -0.18,0.42001 -0.16501,0.135 -0.42001,0.135 -0.27,0 -0.435,-0.165 -0.165,-0.18001 -0.135,-0.43501 l 0.045,-0.66 q -0.33,0.615 -0.91501,0.96 -0.57,0.33001 -1.32001,0.33001 -1.095,0 -1.80001,-0.58501 -0.69,-0.6 -0.69,-1.51501 0,-0.825 0.435,-1.30501 0.435,-0.495 1.39501,-0.72 0.96001,-0.225 2.59502,-0.225 h 0.54 l 0.03,-0.43501 0.015,-0.285 q 0,-0.78 -0.39,-1.14001 -0.375,-0.375 -1.17001,-0.375 -1.08001,0 -2.32501,0.73501 -0.15001,0.075 -0.24001,0.075 -0.18,0 -0.3,-0.135 -0.12,-0.15 -0.12,-0.34501 0,-0.33 0.285,-0.51 0.54001,-0.375 1.29001,-0.6 0.76501,-0.225 1.50001,-0.225 z m -0.795,6.63004 q 0.855,0 1.45501,-0.6 0.6,-0.60001 0.66,-1.54501 l 0.03,-0.46501 h -0.42 q -1.24501,0 -1.95002,0.135 -0.69,0.12 -0.99,0.42001 -0.3,0.285 -0.3,0.81 0,0.57001 0.405,0.91501 0.405,0.33 1.11001,0.33 z" style="font-size:14.9988px;font-family:Nunito;-inkscape-font-specification:Nunito;text-align:end;letter-spacing:0px;word-spacing:0px;text-anchor:end;fill:#cccccc;stroke-width:1.2499px"/><path d="m 422.99345,135.64058 q 1.23001,0 1.87501,0.645 0.64501,0.645 0.64501,1.87501 0,0.27 -0.015,0.40501 l -0.315,4.03502 q -0.03,0.3 -0.21001,0.45001 -0.18,0.15 -0.435,0.15 -0.285,0 -0.45,-0.15 -0.15,-0.15001 -0.12,-0.45001 l 0.315,-3.96002 q 0.015,-0.10501 0.015,-0.31501 0,-1.66501 -1.60501,-1.66501 -1.02001,0 -1.62001,0.61501 -0.60001,0.6 -0.69001,1.66501 l -0.3,3.66002 q -0.015,0.3 -0.195,0.45001 -0.18,0.15 -0.45,0.15 -0.27,0 -0.435,-0.15 -0.15001,-0.15001 -0.13501,-0.45001 l 0.52501,-6.36004 q 0.015,-0.27 0.195,-0.42 0.195,-0.15 0.45,-0.15 0.255,0 0.405,0.15 0.15001,0.15 0.13501,0.405 l -0.06,0.72 q 0.375,-0.615 1.02,-0.96 0.64501,-0.345 1.45501,-0.345 z" style="font-size:14.9988px;font-family:Nunito;-inkscape-font-specification:Nunito;text-align:end;letter-spacing:0px;word-spacing:0px;text-anchor:end;fill:#cccccc;stroke-width:1.2499px"/><path d="m 440.12357,132.47555 q 0.255,0 0.405,0.18001 0.165,0.165 0.15,0.435 l -0.75,9.51006 q -0.03,0.285 -0.18001,0.45001 -0.135,0.15 -0.405,0.15 -0.36,0 -0.54,-0.28501 l -5.56504,-8.29505 -0.645,7.99505 q -0.015,0.27 -0.18,0.43501 -0.16501,0.15 -0.42001,0.15 -0.255,0 -0.42,-0.165 -0.15,-0.18001 -0.135,-0.46501 l 0.75,-9.48006 q 0.015,-0.285 0.18,-0.45 0.18001,-0.16501 0.43501,-0.16501 0.33,0 0.525,0.28501 l 5.55004,8.26505 0.645,-7.96505 q 0.015,-0.27 0.18,-0.42 0.165,-0.16501 0.42001,-0.16501 z" style="font-size:14.9988px;font-family:Nunito;-inkscape-font-specification:Nunito;text-align:end;letter-spacing:0px;word-spacing:0px;text-anchor:end;fill:#cccccc;stroke-width:1.2499px"/><path d="m 448.44863,135.67058 q 0.27,0 0.42,0.165 0.165,0.15 0.135,0.435 l -0.51,6.37504 q -0.015,0.255 -0.21,0.40501 -0.18,0.15 -0.43501,0.15 -0.255,0 -0.405,-0.135 -0.15,-0.15001 -0.135,-0.40501 l 0.06,-0.72 q -0.375,0.615 -1.00501,0.96 -0.63,0.33001 -1.41001,0.33001 -1.215,0 -1.84501,-0.63001 -0.63,-0.645 -0.63,-1.87501 0,-0.27 0.015,-0.405 l 0.315,-4.05003 q 0.03,-0.285 0.21,-0.435 0.195,-0.165 0.45,-0.165 0.27001,0 0.42001,0.165 0.165,0.15 0.135,0.435 l -0.315,3.97503 q -0.015,0.105 -0.015,0.315 0,1.65001 1.57501,1.65001 0.975,0 1.56001,-0.6 0.585,-0.60001 0.66,-1.66502 l 0.3,-3.67502 q 0.03,-0.285 0.21,-0.435 0.19501,-0.165 0.45001,-0.165 z" style="font-size:14.9988px;font-family:Nunito;-inkscape-font-specification:Nunito;text-align:end;letter-spacing:0px;word-spacing:0px;text-anchor:end;fill:#cccccc;stroke-width:1.2499px"/><path d="m 459.35371,135.64058 q 1.14001,0 1.72502,0.645 0.585,0.63 0.585,1.84501 0,0.285 -0.015,0.43501 l -0.315,4.03502 q -0.015,0.3 -0.21,0.45001 -0.18001,0.15 -0.43501,0.15 -0.255,0 -0.42,-0.15 -0.165,-0.15001 -0.15,-0.45001 l 0.315,-3.97502 q 0.015,-0.12001 0.015,-0.36001 0,-0.825 -0.36,-1.215 -0.345,-0.39001 -1.06501,-0.39001 -0.915,0 -1.45501,0.60001 -0.54,0.6 -0.615,1.71001 l -0.285,3.63002 q -0.03,0.3 -0.22501,0.45001 -0.18,0.15 -0.435,0.15 -0.255,0 -0.42,-0.15 -0.165,-0.15001 -0.135,-0.45001 l 0.315,-3.97502 q 0.015,-0.12001 0.015,-0.36001 0,-0.825 -0.36,-1.215 -0.345,-0.39001 -1.06501,-0.39001 -0.91501,0 -1.45501,0.60001 -0.525,0.585 -0.63,1.71001 l -0.30001,3.63002 q -0.015,0.3 -0.21,0.45001 -0.18,0.15 -0.435,0.15 -0.255,0 -0.42,-0.15 -0.165,-0.15001 -0.15,-0.45001 l 0.525,-6.36004 q 0.015,-0.27 0.195,-0.42 0.195,-0.15 0.45,-0.15 0.25501,0 0.40501,0.15 0.15,0.135 0.135,0.405 l -0.06,0.675 q 0.75,-1.26 2.29501,-1.26 0.84001,0 1.38001,0.36 0.55501,0.345 0.78001,1.02 0.375,-0.66 1.02,-1.02 0.64501,-0.36 1.47001,-0.36 z" style="font-size:14.9988px;font-family:Nunito;-inkscape-font-specification:Nunito;text-align:end;letter-spacing:0px;word-spacing:0px;text-anchor:end;fill:#cccccc;stroke-width:1.2499px"/><path d="m 464.57374,139.6606 v 0.06 q 0,1.20001 0.585,1.86002 0.60001,0.66 1.72501,0.66 1.18501,0 2.08502,-0.66 0.15,-0.10501 0.3,-0.10501 0.18,0 0.285,0.13501 0.12,0.135 0.12,0.315 0,0.27 -0.24,0.495 -0.405,0.36 -1.14001,0.585 -0.72,0.22501 -1.47001,0.22501 -1.59001,0 -2.53501,-0.96001 -0.93001,-0.96001 -0.93001,-2.58002 0,-1.20001 0.435,-2.11501 0.45001,-0.91501 1.26001,-1.42501 0.82501,-0.51 1.90501,-0.51 1.47001,0 2.25002,0.885 0.78,0.87001 0.78,2.53502 0,0.285 -0.15,0.45 -0.15,0.15 -0.405,0.15 z m 2.43001,-3.07502 q -1.005,0 -1.60501,0.60001 -0.6,0.585 -0.765,1.69501 h 4.26003 q 0.045,-1.12501 -0.46501,-1.71001 -0.495,-0.58501 -1.42501,-0.58501 z" style="font-size:14.9988px;font-family:Nunito;-inkscape-font-specification:Nunito;text-align:end;letter-spacing:0px;word-spacing:0px;text-anchor:end;fill:#cccccc;stroke-width:1.2499px"/><path d="m 475.67382,135.67058 q 0.255,-0.03 0.39,0.105 0.15,0.12 0.15,0.36 0,0.54 -0.585,0.585 l -0.405,0.045 q -1.09501,0.105 -1.65001,0.64501 -0.54001,0.54 -0.61501,1.54501 l -0.3,3.64502 q -0.015,0.3 -0.21,0.45001 -0.18,0.15 -0.43501,0.15 -0.255,0 -0.42,-0.15 -0.165,-0.15001 -0.15,-0.45001 l 0.525,-6.36004 q 0.015,-0.27 0.19501,-0.42 0.195,-0.15 0.45,-0.15 0.255,0 0.39,0.15 0.15,0.135 0.135,0.405 l -0.06,0.78 q 0.39,-0.615 0.99001,-0.93 0.6,-0.315 1.44001,-0.39 z" style="font-size:14.9988px;font-family:Nunito;-inkscape-font-specification:Nunito;text-align:end;letter-spacing:0px;word-spacing:0px;text-anchor:end;fill:#cccccc;stroke-width:1.2499px"/><path d="m 480.11386,135.64058 q 2.64002,0 2.64002,2.50501 0,0.27 -0.015,0.40501 l -0.315,4.09502 q -0.015,0.27 -0.18001,0.42001 -0.165,0.135 -0.42,0.135 -0.27,0 -0.435,-0.165 -0.165,-0.18001 -0.135,-0.43501 l 0.045,-0.66 q -0.33,0.615 -0.91501,0.96 -0.57,0.33001 -1.32001,0.33001 -1.095,0 -1.80001,-0.58501 -0.69,-0.6 -0.69,-1.51501 0,-0.825 0.435,-1.30501 0.435,-0.495 1.39501,-0.72 0.96001,-0.225 2.59502,-0.225 h 0.54 l 0.03,-0.43501 0.015,-0.285 q 0,-0.78 -0.39,-1.14001 -0.375,-0.375 -1.17001,-0.375 -1.08001,0 -2.32502,0.73501 -0.15,0.075 -0.24,0.075 -0.18,0 -0.3,-0.135 -0.12,-0.15 -0.12,-0.34501 0,-0.33 0.285,-0.51 0.54001,-0.375 1.29001,-0.6 0.76501,-0.225 1.50001,-0.225 z m -0.795,6.63004 q 0.855,0 1.455,-0.6 0.60001,-0.60001 0.66001,-1.54501 l 0.03,-0.46501 h -0.42 q -1.24501,0 -1.95002,0.135 -0.69,0.12 -0.99,0.42001 -0.3,0.285 -0.3,0.81 0,0.57001 0.405,0.91501 0.405,0.33 1.11001,0.33 z" style="font-size:14.9988px;font-family:Nunito;-inkscape-font-specification:Nunito;text-align:end;letter-spacing:0px;word-spacing:0px;text-anchor:end;fill:#cccccc;stroke-width:1.2499px"/><path d="m 485.19891,143.20063 q -0.255,0 -0.42001,-0.15 -0.165,-0.15001 -0.15,-0.45001 l 0.76501,-9.57006 q 0.015,-0.285 0.21,-0.42 0.195,-0.15001 0.45,-0.15001 0.255,0 0.40501,0.15001 0.165,0.135 0.15,0.42 l -0.76501,9.57006 q -0.015,0.3 -0.21,0.45001 -0.18,0.15 -0.435,0.15 z" style="font-size:14.9988px;font-family:Nunito;-inkscape-font-specification:Nunito;text-align:end;letter-spacing:0px;word-spacing:0px;text-anchor:end;fill:#cccccc;stroke-width:1.2499px"/><path d="m 490.59895,143.23063 q -0.75001,0 -1.45501,-0.21001 -0.69001,-0.21 -1.14001,-0.54 -0.3,-0.195 -0.3,-0.525 0,-0.21 0.12,-0.345 0.135,-0.15001 0.33,-0.15001 0.135,0 0.285,0.09 0.52501,0.345 1.06501,0.525 0.54,0.18 1.17001,0.18 1.75501,0 1.75501,-1.08001 0,-0.495 -0.42,-0.735 -0.42001,-0.24 -1.32001,-0.51001 -0.76501,-0.225 -1.26001,-0.435 -0.48001,-0.21 -0.81001,-0.615 -0.33,-0.40501 -0.33,-1.06501 0.015,-0.99001 0.81001,-1.57501 0.795,-0.6 2.11501,-0.6 0.69,0 1.33501,0.225 0.645,0.225 1.03501,0.585 0.225,0.165 0.225,0.45 0,0.19501 -0.135,0.34501 -0.12,0.15 -0.30001,0.15 -0.165,0 -0.345,-0.135 -0.855,-0.63001 -1.84501,-0.63001 -0.82501,0 -1.27501,0.285 -0.435,0.28501 -0.435,0.85501 0,0.495 0.42,0.735 0.435,0.24001 1.30501,0.49501 0.76501,0.225 1.24501,0.435 0.48,0.21 0.81,0.61501 0.34501,0.405 0.34501,1.065 0,0.97501 -0.81001,1.54501 -0.81,0.57001 -2.19001,0.57001 z" style="font-size:14.9988px;font-family:Nunito;-inkscape-font-specification:Nunito;text-align:end;letter-spacing:0px;word-spacing:0px;text-anchor:end;fill:#cccccc;stroke-width:1.2499px"/><path d="m 500.229,143.20063 q -0.285,0 -0.45001,-0.165 -0.165,-0.18001 -0.165,-0.46501 v -9.46506 q 0,-0.285 0.165,-0.45 0.16501,-0.18001 0.45001,-0.18001 0.285,0 0.45,0.18001 0.165,0.165 0.165,0.45 v 9.46506 q 0,0.285 -0.165,0.46501 -0.165,0.165 -0.45,0.165 z" style="font-size:14.9988px;font-family:Nunito;-inkscape-font-specification:Nunito;text-align:end;letter-spacing:0px;word-spacing:0px;text-anchor:end;stroke-width:1.2499px"/><path d="m 390.4132,156.4757 q 0.85501,0.225 1.30501,0.84 0.465,0.61501 0.465,1.51501 0,1.44001 -0.96,2.25002 -0.96001,0.795 -2.67002,0.795 h -3.85503 q -0.3,0 -0.48,-0.18 -0.165,-0.195 -0.15,-0.495 l 0.735,-9.30006 q 0.015,-0.28501 0.19501,-0.43501 0.18,-0.165 0.45,-0.165 h 3.49502 q 1.66501,0 2.52002,0.67501 0.87001,0.675 0.87001,1.92001 0,0.93001 -0.49501,1.59001 -0.48,0.66 -1.42501,0.99001 z m -4.42503,-4.15503 -0.285,3.67502 h 2.95502 q 1.18501,0 1.81501,-0.51 0.63001,-0.51 0.63001,-1.48501 0,-1.68001 -2.26502,-1.68001 z m 2.52002,8.53506 q 2.47502,0 2.47502,-2.01002 0,-1.83001 -2.29502,-1.83001 h -3.06002 l -0.3,3.84003 z" style="font-size:14.9988px;font-family:Nunito;-inkscape-font-specification:Nunito;text-align:end;letter-spacing:0px;word-spacing:0px;text-anchor:end;fill:#cccccc;stroke-width:1.2499px"/><path d="m 394.55323,161.95073 q -0.255,0 -0.42001,-0.15 -0.165,-0.15 -0.15,-0.45 l 0.52501,-6.36004 q 0.015,-0.28501 0.195,-0.42001 0.195,-0.15 0.45,-0.15 0.255,0 0.42,0.15 0.165,0.135 0.15,0.42001 l -0.525,6.36004 q -0.015,0.3 -0.21,0.45 -0.18,0.15 -0.435,0.15 z m 0.795,-9.10506 q -0.36,0 -0.585,-0.21 -0.225,-0.21 -0.225,-0.555 0,-0.33001 0.225,-0.54001 0.225,-0.21 0.585,-0.21 0.36,0 0.58501,0.21 0.225,0.21 0.225,0.54001 0,0.345 -0.225,0.555 -0.22501,0.21 -0.58501,0.21 z" style="font-size:14.9988px;font-family:Nunito;-inkscape-font-specification:Nunito;text-align:end;letter-spacing:0px;word-spacing:0px;text-anchor:end;fill:#cccccc;stroke-width:1.2499px"/><path d="m 401.58828,154.39068 q 1.23001,0 1.87501,0.64501 0.64501,0.645 0.64501,1.87501 0,0.27 -0.015,0.405 l -0.31501,4.03503 q -0.03,0.3 -0.21,0.45 -0.18,0.15 -0.435,0.15 -0.285,0 -0.45,-0.15 -0.15,-0.15 -0.12,-0.45 l 0.315,-3.96003 q 0.015,-0.105 0.015,-0.315 0,-1.66501 -1.60501,-1.66501 -1.02001,0 -1.62001,0.615 -0.60001,0.60001 -0.69001,1.66501 l -0.3,3.66003 q -0.015,0.3 -0.195,0.45 -0.18,0.15 -0.45,0.15 -0.27001,0 -0.43501,-0.15 -0.15,-0.15 -0.135,-0.45 l 0.525,-6.36004 q 0.015,-0.27001 0.19501,-0.42001 0.195,-0.15 0.45,-0.15 0.255,0 0.405,0.15 0.15,0.15 0.135,0.40501 l -0.06,0.72 q 0.375,-0.615 1.02001,-0.96001 0.645,-0.345 1.45501,-0.345 z" style="font-size:14.9988px;font-family:Nunito;-inkscape-font-specification:Nunito;text-align:end;letter-spacing:0px;word-spacing:0px;text-anchor:end;fill:#cccccc;stroke-width:1.2499px"/><path d="m 409.41834,154.39068 q 2.64002,0 2.64002,2.50502 0,0.27 -0.015,0.405 l -0.315,4.09503 q -0.015,0.27 -0.18,0.42 -0.165,0.135 -0.42,0.135 -0.27001,0 -0.43501,-0.165 -0.165,-0.18 -0.135,-0.435 l 0.045,-0.66001 q -0.33,0.61501 -0.915,0.96001 -0.57001,0.33 -1.32001,0.33 -1.09501,0 -1.80001,-0.585 -0.69001,-0.6 -0.69001,-1.51501 0,-0.82501 0.435,-1.30501 0.43501,-0.495 1.39501,-0.72 0.96001,-0.22501 2.59502,-0.22501 h 0.54 l 0.03,-0.435 0.015,-0.285 q 0,-0.78001 -0.39,-1.14001 -0.375,-0.375 -1.17001,-0.375 -1.08,0 -2.32501,0.735 -0.15,0.075 -0.24,0.075 -0.18,0 -0.30001,-0.135 -0.12,-0.15 -0.12,-0.345 0,-0.33 0.28501,-0.51 0.54,-0.375 1.29,-0.60001 0.76501,-0.225 1.50001,-0.225 z m -0.795,6.63005 q 0.855,0 1.45501,-0.60001 0.6,-0.6 0.66,-1.54501 l 0.03,-0.465 h -0.42 q -1.24501,0 -1.95001,0.135 -0.69001,0.12 -0.99001,0.42 -0.3,0.285 -0.3,0.81001 0,0.57 0.405,0.915 0.405,0.33001 1.11001,0.33001 z" style="font-size:14.9988px;font-family:Nunito;-inkscape-font-specification:Nunito;text-align:end;letter-spacing:0px;word-spacing:0px;text-anchor:end;fill:#cccccc;stroke-width:1.2499px"/><path d="m 418.16341,154.42068 q 0.255,-0.03 0.39,0.105 0.15001,0.12 0.15001,0.36001 0,0.54 -0.58501,0.585 l -0.405,0.045 q -1.09501,0.105 -1.65001,0.645 -0.54001,0.54001 -0.61501,1.54501 l -0.3,3.64503 q -0.015,0.3 -0.21,0.45 -0.18,0.15 -0.435,0.15 -0.255,0 -0.42001,-0.15 -0.165,-0.15 -0.15,-0.45 l 0.52501,-6.36004 q 0.015,-0.27001 0.195,-0.42001 0.195,-0.15 0.45,-0.15 0.255,0 0.39,0.15 0.15,0.135 0.135,0.40501 l -0.06,0.78 q 0.39001,-0.615 0.99001,-0.93 0.6,-0.31501 1.44001,-0.39001 z" style="font-size:14.9988px;font-family:Nunito;-inkscape-font-specification:Nunito;text-align:end;letter-spacing:0px;word-spacing:0px;text-anchor:end;fill:#cccccc;stroke-width:1.2499px"/><path d="m 425.40848,154.82569 q 0.165,-0.33001 0.51,-0.33001 0.225,0 0.39001,0.15 0.18,0.15001 0.18,0.37501 0,0.12 -0.075,0.27 l -4.74004,9.01506 q -0.195,0.36 -0.555,0.36 -0.21,0 -0.375,-0.135 -0.15,-0.135 -0.15,-0.345 0,-0.09 0.075,-0.27 l 1.11001,-2.11502 -2.40002,-6.54004 q -0.045,-0.12 -0.045,-0.195 0,-0.24 0.195,-0.39001 0.195,-0.165 0.435,-0.165 0.165,0 0.30001,0.09 0.15,0.09 0.21,0.27001 l 2.01001,5.68503 z" style="font-size:14.9988px;font-family:Nunito;-inkscape-font-specification:Nunito;text-align:end;letter-spacing:0px;word-spacing:0px;text-anchor:end;fill:#cccccc;stroke-width:1.2499px"/><path d="m 440.12357,151.22566 q 0.255,0 0.405,0.18 0.165,0.165 0.15,0.43501 l -0.75,9.51006 q -0.03,0.285 -0.18001,0.45 -0.135,0.15 -0.405,0.15 -0.36,0 -0.54,-0.285 l -5.56504,-8.29505 -0.645,7.99505 q -0.015,0.27 -0.18,0.435 -0.16501,0.15 -0.42001,0.15 -0.255,0 -0.42,-0.165 -0.15,-0.18 -0.135,-0.465 l 0.75,-9.48006 q 0.015,-0.28501 0.18001,-0.45001 0.18,-0.165 0.435,-0.165 0.33,0 0.525,0.285 l 5.55004,8.26506 0.645,-7.96505 q 0.015,-0.27001 0.18,-0.42001 0.16501,-0.165 0.42001,-0.165 z" style="font-size:14.9988px;font-family:Nunito;-inkscape-font-specification:Nunito;text-align:end;letter-spacing:0px;word-spacing:0px;text-anchor:end;fill:#cccccc;stroke-width:1.2499px"/><path d="m 448.44863,154.42068 q 0.27,0 0.42,0.165 0.165,0.15 0.135,0.43501 l -0.51,6.37504 q -0.015,0.255 -0.21,0.405 -0.18,0.15 -0.43501,0.15 -0.255,0 -0.405,-0.135 -0.15,-0.15 -0.135,-0.405 l 0.06,-0.72001 q -0.375,0.61501 -1.00501,0.96001 -0.63,0.33 -1.41001,0.33 -1.215,0 -1.84501,-0.63 -0.63,-0.64501 -0.63,-1.87501 0,-0.27001 0.015,-0.40501 l 0.315,-4.05002 q 0.03,-0.28501 0.21,-0.43501 0.195,-0.165 0.45,-0.165 0.27001,0 0.42001,0.165 0.165,0.15 0.135,0.43501 l -0.315,3.97502 q -0.015,0.105 -0.015,0.31501 0,1.65001 1.57501,1.65001 0.975,0 1.56001,-0.60001 0.585,-0.6 0.66,-1.66501 l 0.3,-3.67502 q 0.03,-0.28501 0.21,-0.43501 0.19501,-0.165 0.45001,-0.165 z" style="font-size:14.9988px;font-family:Nunito;-inkscape-font-specification:Nunito;text-align:end;letter-spacing:0px;word-spacing:0px;text-anchor:end;fill:#cccccc;stroke-width:1.2499px"/><path d="m 459.35371,154.39068 q 1.14001,0 1.72502,0.64501 0.585,0.63 0.585,1.84501 0,0.285 -0.015,0.435 l -0.315,4.03503 q -0.015,0.3 -0.21,0.45 -0.18001,0.15 -0.43501,0.15 -0.255,0 -0.42,-0.15 -0.165,-0.15 -0.15,-0.45 l 0.315,-3.97503 q 0.015,-0.12 0.015,-0.36 0,-0.82501 -0.36,-1.21501 -0.345,-0.39 -1.06501,-0.39 -0.915,0 -1.45501,0.6 -0.54,0.60001 -0.615,1.71001 l -0.285,3.63003 q -0.03,0.3 -0.22501,0.45 -0.18,0.15 -0.435,0.15 -0.255,0 -0.42,-0.15 -0.165,-0.15 -0.135,-0.45 l 0.315,-3.97503 q 0.015,-0.12 0.015,-0.36 0,-0.82501 -0.36,-1.21501 -0.345,-0.39 -1.06501,-0.39 -0.91501,0 -1.45501,0.6 -0.525,0.58501 -0.63,1.71001 l -0.30001,3.63003 q -0.015,0.3 -0.21,0.45 -0.18,0.15 -0.435,0.15 -0.255,0 -0.42,-0.15 -0.165,-0.15 -0.15,-0.45 l 0.525,-6.36004 q 0.015,-0.27001 0.195,-0.42001 0.195,-0.15 0.45,-0.15 0.25501,0 0.40501,0.15 0.15,0.135 0.135,0.40501 l -0.06,0.675 q 0.75,-1.26001 2.29501,-1.26001 0.84001,0 1.38001,0.36 0.55501,0.34501 0.78001,1.02001 0.375,-0.66 1.02,-1.02001 0.64501,-0.36 1.47001,-0.36 z" style="font-size:14.9988px;font-family:Nunito;-inkscape-font-specification:Nunito;text-align:end;letter-spacing:0px;word-spacing:0px;text-anchor:end;fill:#cccccc;stroke-width:1.2499px"/><path d="m 464.57374,158.41071 v 0.06 q 0,1.20001 0.585,1.86001 0.60001,0.66001 1.72501,0.66001 1.18501,0 2.08502,-0.66001 0.15,-0.105 0.3,-0.105 0.18,0 0.285,0.135 0.12,0.135 0.12,0.315 0,0.27001 -0.24,0.49501 -0.405,0.36 -1.14001,0.585 -0.72,0.225 -1.47001,0.225 -1.59001,0 -2.53501,-0.96 -0.93001,-0.96001 -0.93001,-2.58002 0,-1.20001 0.435,-2.11501 0.45001,-0.91501 1.26001,-1.42501 0.82501,-0.51001 1.90501,-0.51001 1.47001,0 2.25002,0.88501 0.78,0.87 0.78,2.53502 0,0.285 -0.15,0.45 -0.15,0.15 -0.405,0.15 z m 2.43001,-3.07502 q -1.005,0 -1.60501,0.6 -0.6,0.58501 -0.765,1.69501 h 4.26003 q 0.045,-1.125 -0.46501,-1.71001 -0.495,-0.585 -1.42501,-0.585 z" style="font-size:14.9988px;font-family:Nunito;-inkscape-font-specification:Nunito;text-align:end;letter-spacing:0px;word-spacing:0px;text-anchor:end;fill:#cccccc;stroke-width:1.2499px"/><path d="m 475.67382,154.42068 q 0.255,-0.03 0.39,0.105 0.15,0.12 0.15,0.36001 0,0.54 -0.585,0.585 l -0.405,0.045 q -1.09501,0.105 -1.65001,0.645 -0.54001,0.54001 -0.61501,1.54501 l -0.3,3.64503 q -0.015,0.3 -0.21,0.45 -0.18,0.15 -0.435,0.15 -0.25501,0 -0.42001,-0.15 -0.165,-0.15 -0.15,-0.45 l 0.52501,-6.36004 q 0.015,-0.27001 0.195,-0.42001 0.195,-0.15 0.45,-0.15 0.255,0 0.39,0.15 0.15,0.135 0.135,0.40501 l -0.06,0.78 q 0.39001,-0.615 0.99001,-0.93 0.6,-0.31501 1.44001,-0.39001 z" style="font-size:14.9988px;font-family:Nunito;-inkscape-font-specification:Nunito;text-align:end;letter-spacing:0px;word-spacing:0px;text-anchor:end;fill:#cccccc;stroke-width:1.2499px"/><path d="m 480.11386,154.39068 q 2.64002,0 2.64002,2.50502 0,0.27 -0.015,0.405 l -0.315,4.09503 q -0.015,0.27 -0.18,0.42 -0.16501,0.135 -0.42001,0.135 -0.27,0 -0.435,-0.165 -0.165,-0.18 -0.135,-0.435 l 0.045,-0.66001 q -0.33,0.61501 -0.91501,0.96001 -0.57,0.33 -1.32001,0.33 -1.095,0 -1.80001,-0.585 -0.69,-0.6 -0.69,-1.51501 0,-0.82501 0.435,-1.30501 0.435,-0.495 1.39501,-0.72 0.96001,-0.22501 2.59502,-0.22501 h 0.54 l 0.03,-0.435 0.015,-0.285 q 0,-0.78001 -0.39,-1.14001 -0.375,-0.375 -1.17001,-0.375 -1.08001,0 -2.32502,0.735 -0.15,0.075 -0.24,0.075 -0.18,0 -0.3,-0.135 -0.12,-0.15 -0.12,-0.345 0,-0.33 0.285,-0.51 0.54001,-0.375 1.29001,-0.60001 0.76501,-0.225 1.50001,-0.225 z m -0.795,6.63005 q 0.855,0 1.45501,-0.60001 0.6,-0.6 0.66,-1.54501 l 0.03,-0.465 h -0.42 q -1.24501,0 -1.95002,0.135 -0.69,0.12 -0.99,0.42 -0.3,0.285 -0.3,0.81001 0,0.57 0.405,0.915 0.405,0.33001 1.11001,0.33001 z" style="font-size:14.9988px;font-family:Nunito;-inkscape-font-specification:Nunito;text-align:end;letter-spacing:0px;word-spacing:0px;text-anchor:end;fill:#cccccc;stroke-width:1.2499px"/><path d="m 485.19891,161.95073 q -0.255,0 -0.42001,-0.15 -0.165,-0.15 -0.15,-0.45 l 0.76501,-9.57006 q 0.015,-0.28501 0.21,-0.42001 0.195,-0.15 0.45,-0.15 0.255,0 0.40501,0.15 0.165,0.135 0.15,0.42001 l -0.76501,9.57006 q -0.015,0.3 -0.21,0.45 -0.18,0.15 -0.435,0.15 z" style="font-size:14.9988px;font-family:Nunito;-inkscape-font-specification:Nunito;text-align:end;letter-spacing:0px;word-spacing:0px;text-anchor:end;fill:#cccccc;stroke-width:1.2499px"/><path d="m 490.59895,161.98073 q -0.75001,0 -1.45501,-0.21 -0.69001,-0.21 -1.14001,-0.54 -0.3,-0.195 -0.3,-0.52501 0,-0.21 0.12,-0.345 0.135,-0.15 0.33,-0.15 0.135,0 0.285,0.09 0.52501,0.345 1.06501,0.52501 0.54,0.18 1.17001,0.18 1.75501,0 1.75501,-1.08001 0,-0.495 -0.42,-0.73501 -0.42001,-0.24 -1.32001,-0.51 -0.76501,-0.225 -1.26001,-0.435 -0.48,-0.21 -0.81001,-0.61501 -0.33,-0.405 -0.33,-1.065 0.015,-0.99001 0.81001,-1.57501 0.795,-0.60001 2.11501,-0.60001 0.69001,0 1.33501,0.225 0.645,0.22501 1.03501,0.58501 0.225,0.165 0.225,0.45 0,0.195 -0.135,0.345 -0.12,0.15 -0.30001,0.15 -0.165,0 -0.345,-0.135 -0.855,-0.63 -1.84501,-0.63 -0.82501,0 -1.27501,0.285 -0.435,0.285 -0.435,0.85501 0,0.495 0.42,0.735 0.435,0.24 1.30501,0.495 0.76501,0.22501 1.24501,0.43501 0.48,0.21 0.81,0.615 0.34501,0.405 0.34501,1.06501 0,0.97501 -0.81001,1.54501 -0.81,0.57 -2.19001,0.57 z" style="font-size:14.9988px;font-family:Nunito;-inkscape-font-specification:Nunito;text-align:end;letter-spacing:0px;word-spacing:0px;text-anchor:end;fill:#cccccc;stroke-width:1.2499px"/><path d="m 500.229,161.95073 q -0.285,0 -0.45001,-0.165 -0.165,-0.18 -0.165,-0.465 v -9.46506 q 0,-0.28501 0.165,-0.45001 0.16501,-0.18 0.45001,-0.18 0.285,0 0.45,0.18 0.165,0.165 0.165,0.45001 v 9.46506 q 0,0.285 -0.165,0.465 -0.165,0.165 -0.45,0.165 z" style="font-size:14.9988px;font-family:Nunito;-inkscape-font-specification:Nunito;text-align:end;letter-spacing:0px;word-spacing:0px;text-anchor:end;stroke-width:1.2499px"/></g><g id="bit4-0" style="display:inline" transform="translate(29.40145,-4.6499958)"><a id="a-bit4-0" xlink:href="9.svg"><rect style="color:#000000;font-variation-settings:normal;display:inline;overflow:visible;vector-effect:none;fill:#ffffff;fill-opacity:1;stroke:none;stroke-width:1.15647px;stroke-linecap:butt;stroke-linejoin:miter;stroke-miterlimit:4;stroke-dasharray:none;stroke-dashoffset:0;stroke-opacity:1;-inkscape-stroke:none;stop-color:#000000" width="23.247864" height="32.262341" x="103.43777" y="494.04401"/><path d="m 115.0617,525.55664 q -5.16271,0 -7.85073,-3.92536 -2.68802,-3.92536 -2.68802,-11.43476 0,-7.55205 2.68802,-11.47742 2.68802,-3.92536 7.85073,-3.92536 5.16271,0 7.85073,3.92536 2.68802,3.8827 2.68802,11.43476 0,7.55206 -2.68802,11.47742 -2.68802,3.92536 -7.85073,3.92536 z m 0,-2.94402 q 3.58403,0 5.29071,-3.02936 1.70668,-3.02935 1.70668,-9.4294 0,-6.44272 -1.70668,-9.42941 -1.66401,-2.98669 -5.29071,-2.98669 -3.58403,0 -5.29071,3.02936 -1.70668,2.98669 -1.70668,9.38674 0,6.40005 1.70668,9.4294 1.70668,3.02936 5.29071,3.02936 z" style="font-size:42.667px;line-height:1.25;font-family:Nunito;-inkscape-font-specification:Nunito;letter-spacing:0px;word-spacing:0px;display:inline;stroke-width:1.33334px"/><path style="color:#000000;font-variation-settings:normal;display:inline;overflow:visible;vector-effect:none;fill:#f9f9f9;fill-opacity:1;stroke-width:7.77377;stroke-linecap:round;stroke-linejoin:round;stroke-miterlimit:4;stroke-dasharray:none;stroke-dashoffset:0;stroke-opacity:1;-inkscape-stroke:none;stop-color:#000000" d="m 191.14017,153.89723 v 35.22234 a 99.880919,99.880919 0 0 1 63.9738,26.50592 l 24.91111,-24.9111 a 135.10077,135.10077 0 0 0 -88.88491,-36.81716 z m -7.71203,0.16328 a 135.10077,135.10077 0 0 0 -88.594497,36.94428 l 24.730347,24.73036 a 99.880919,99.880919 0 0 1 63.86415,-26.43182 z m 102.05019,42.10714 -24.9111,24.9111 a 99.880919,99.880919 0 0 1 26.50593,63.9738 h 35.22234 a 135.10077,135.10077 0 0 0 -36.81717,-88.8849 z m -196.097947,0.2904 a 135.10077,135.10077 0 0 0 -36.944301,88.5945 H 87.678913 A 99.880919,99.880919 0 0 1 114.11073,221.1884 Z m -36.944301,96.30654 a 135.10077,135.10077 0 0 0 36.768981,88.76922 L 114.11013,356.62874 A 99.880919,99.880919 0 0 1 87.678913,292.76459 Z m 234.452718,0 a 99.880919,99.880919 0 0 1 -26.43182,63.86415 l 24.73095,24.73035 a 135.10077,135.10077 0 0 0 36.94429,-88.5945 z m -167.32481,69.3168 -24.905677,24.90568 a 135.10077,135.10077 0 0 0 88.769827,36.76957 v -35.24283 a 99.880919,99.880919 0 0 1 -63.86415,-26.43242 z m 135.44033,0 a 99.880919,99.880919 0 0 1 -63.86415,26.43242 v 35.24283 a 135.10077,135.10077 0 0 0 88.59449,-36.9443 z"/></a></g><g id="bit3-0" style="display:inline" transform="translate(29.40145,-4.6499958)"><a id="a-bit3-0" xlink:href="5.svg" style="display:inline"><rect style="color:#000000;font-variation-settings:normal;display:inline;overflow:visible;vector-effect:none;fill:#ffffff;fill-opacity:1;stroke:none;stroke-width:1.15647px;stroke-linecap:butt;stroke-linejoin:miter;stroke-miterlimit:4;stroke-dasharray:none;stroke-dashoffset:0;stroke-opacity:1;-inkscape-stroke:none;stop-color:#000000" width="23.247864" height="32.262341" x="129.03798" y="494.04401"/><path d="m 140.66191,525.55664 q -5.1627,0 -7.85073,-3.92536 -2.68802,-3.92536 -2.68802,-11.43476 0,-7.55205 2.68802,-11.47742 2.68803,-3.92536 7.85073,-3.92536 5.16271,0 7.85073,3.92536 2.68802,3.8827 2.68802,11.43476 0,7.55206 -2.68802,11.47742 -2.68802,3.92536 -7.85073,3.92536 z m 0,-2.94402 q 3.58403,0 5.29071,-3.02936 1.70668,-3.02935 1.70668,-9.4294 0,-6.44272 -1.70668,-9.42941 -1.66401,-2.98669 -5.29071,-2.98669 -3.58403,0 -5.29071,3.02936 -1.70668,2.98669 -1.70668,9.38674 0,6.40005 1.70668,9.4294 1.70668,3.02936 5.29071,3.02936 z" style="font-size:42.667px;line-height:1.25;font-family:Nunito;-inkscape-font-specification:Nunito;letter-spacing:0px;word-spacing:0px;display:inline;stroke-width:1.33334px"/><path style="color:#000000;font-variation-settings:normal;display:inline;overflow:visible;vector-effect:none;fill:#f9f9f9;fill-opacity:1;stroke-width:7.77377;stroke-linecap:round;stroke-linejoin:round;stroke-miterlimit:4;stroke-dasharray:none;stroke-dashoffset:0;stroke-opacity:1;-inkscape-stroke:none;stop-color:#000000" d="m 191.14017,196.84788 v 25.44672 a 66.737046,66.737046 0 0 1 62.75796,62.75795 h 25.44671 a 92.168879,92.168879 0 0 0 -88.20467,-88.20467 z m -7.71203,0.1952 a 92.168879,92.168879 0 0 0 -88.009467,88.00947 h 25.403937 a 66.737046,66.737046 0 0 1 62.60553,-62.60491 z m -88.009467,95.72151 a 92.168879,92.168879 0 0 0 88.009467,88.00947 V 355.3695 a 66.737046,66.737046 0 0 1 -62.60553,-62.60491 z m 158.326407,0 a 66.737046,66.737046 0 0 1 -62.60491,62.60491 v 25.40456 a 92.168879,92.168879 0 0 0 88.00887,-88.00947 z"/></a></g><g id="bit2-0" style="display:inline" transform="translate(29.40145,-4.6499958)"><a id="a-bit2-0" xlink:href="3.svg"><rect style="color:#000000;font-variation-settings:normal;display:inline;overflow:visible;vector-effect:none;fill:#ffffff;fill-opacity:1;stroke:none;stroke-width:1.15647px;stroke-linecap:butt;stroke-linejoin:miter;stroke-miterlimit:4;stroke-dasharray:none;stroke-dashoffset:0;stroke-opacity:1;-inkscape-stroke:none;stop-color:#000000" width="23.247864" height="32.262341" x="154.6382" y="494.04401"/><path d="m 166.26213,525.55664 q -5.1627,0 -7.85073,-3.92536 -2.68802,-3.92536 -2.68802,-11.43476 0,-7.55205 2.68802,-11.47742 2.68803,-3.92536 7.85073,-3.92536 5.16271,0 7.85073,3.92536 2.68802,3.8827 2.68802,11.43476 0,7.55206 -2.68802,11.47742 -2.68802,3.92536 -7.85073,3.92536 z m 0,-2.94402 q 3.58403,0 5.29071,-3.02936 1.70668,-3.02935 1.70668,-9.4294 0,-6.44272 -1.70668,-9.42941 -1.66401,-2.98669 -5.29071,-2.98669 -3.58403,0 -5.29071,3.02936 -1.70668,2.98669 -1.70668,9.38674 0,6.40005 1.70668,9.4294 1.70668,3.02936 5.29071,3.02936 z" style="font-size:42.667px;line-height:1.25;font-family:Nunito;-inkscape-font-specification:Nunito;letter-spacing:0px;word-spacing:0px;display:inline;stroke-width:1.33334px"/><path style="color:#000000;font-variation-settings:normal;display:inline;overflow:visible;vector-effect:none;fill:#f9f9f9;fill-opacity:1;stroke-width:7.77377;stroke-linecap:round;stroke-linejoin:round;stroke-miterlimit:4;stroke-dasharray:none;stroke-dashoffset:0;stroke-opacity:1;-inkscape-stroke:none;stop-color:#000000" d="m 191.14017,230.0205 v 20.52186 a 38.56021,38.56021 0 0 1 34.70419,38.36621 38.56021,38.56021 0 0 1 -34.70419,38.28487 v 20.40257 a 59.025006,59.025006 0 0 0 55.16882,-58.68744 59.025006,59.025006 0 0 0 -55.16882,-58.88807 z m -7.71203,0.20064 a 59.025006,59.025006 0 0 0 -55.16943,58.68743 59.025006,59.025006 0 0 0 55.16943,58.68744 v -20.40257 a 38.56021,38.56021 0 0 1 -34.70419,-38.28487 38.56021,38.56021 0 0 1 34.70419,-38.28487 z"/></a></g><g id="bit1-1" style="display:inline" transform="translate(29.40145,-4.6499958)"><a id="a-bit1-1" xlink:href="0.svg"><rect style="color:#000000;font-variation-settings:normal;display:inline;overflow:visible;vector-effect:none;fill:#ffffff;fill-opacity:1;stroke:none;stroke-width:1.15647px;stroke-linecap:butt;stroke-linejoin:miter;stroke-miterlimit:4;stroke-dasharray:none;stroke-dashoffset:0;stroke-opacity:1;-inkscape-stroke:none;stop-color:#000000" width="23.247864" height="32.262341" x="180.23842" y="494.04404"/><path d="m 199.50393,522.61261 q 0.768,0 1.19467,0.38401 0.42667,0.384 0.42667,1.06667 0,0.72534 -0.42667,1.10934 -0.384,0.38401 -1.19467,0.38401 h -14.12278 q -0.81067,0 -1.23734,-0.38401 -0.38401,-0.384 -0.38401,-1.10934 0,-0.68267 0.42667,-1.06667 0.42667,-0.38401 1.19468,-0.38401 h 5.29071 V 499.7431 l -4.65071,3.02936 q -0.34133,0.21333 -0.68267,0.21333 -0.59734,0 -1.06667,-0.55467 -0.42667,-0.55467 -0.42667,-1.19467 0,-0.89601 0.68267,-1.28001 l 6.48538,-4.22404 q 0.72534,-0.46933 1.49335,-0.46933 0.72534,0 1.19467,0.46933 0.46934,0.46934 0.46934,1.32268 v 25.55753 z" style="font-size:16.0002px;line-height:0%;font-family:Nunito;-inkscape-font-specification:Nunito;letter-spacing:0px;word-spacing:0px;display:inline;fill:#af6500;stroke-width:1.33334px"/><path style="display:inline;overflow:visible;vector-effect:none;fill:#af6500;stroke-width:7.77377;stroke-linecap:round;stroke-linejoin:round;stop-color:#000000" d="m 218.13215,288.90857 a 30.848167,30.848167 0 0 1 -30.84817,30.84817 30.848167,30.848167 0 0 1 -30.84817,-30.84817 30.848167,30.848167 0 0 1 30.84817,-30.84817 30.848167,30.848167 0 0 1 30.84817,30.84817 z"/></a></g></svg>